G75*
%MOIN*%
%OFA0B0*%
%FSLAX25Y25*%
%IPPOS*%
%LPD*%
%AMOC8*
5,1,8,0,0,1.08239X$1,22.5*
%
%ADD10C,0.00000*%
%ADD11OC8,0.07000*%
%ADD12C,0.06000*%
%ADD13R,0.08700X0.02400*%
%ADD14R,0.04331X0.03937*%
%ADD15R,0.03937X0.04331*%
%ADD16R,0.03150X0.03150*%
%ADD17C,0.02400*%
%ADD18R,0.05906X0.05906*%
D10*
X0006322Y0005867D02*
X0238822Y0005867D01*
X0238968Y0005869D01*
X0239115Y0005875D01*
X0239261Y0005885D01*
X0239407Y0005898D01*
X0239552Y0005916D01*
X0239697Y0005937D01*
X0239841Y0005962D01*
X0239985Y0005991D01*
X0240127Y0006024D01*
X0240269Y0006061D01*
X0240410Y0006101D01*
X0240549Y0006145D01*
X0240688Y0006193D01*
X0240825Y0006245D01*
X0240961Y0006300D01*
X0241095Y0006359D01*
X0241227Y0006421D01*
X0241358Y0006487D01*
X0241487Y0006556D01*
X0241614Y0006628D01*
X0241739Y0006704D01*
X0241862Y0006784D01*
X0241983Y0006866D01*
X0242102Y0006952D01*
X0242218Y0007041D01*
X0242332Y0007133D01*
X0242444Y0007228D01*
X0242553Y0007326D01*
X0242659Y0007426D01*
X0242763Y0007530D01*
X0242863Y0007636D01*
X0242961Y0007745D01*
X0243056Y0007857D01*
X0243148Y0007971D01*
X0243237Y0008087D01*
X0243323Y0008206D01*
X0243405Y0008327D01*
X0243485Y0008450D01*
X0243561Y0008575D01*
X0243633Y0008702D01*
X0243702Y0008831D01*
X0243768Y0008962D01*
X0243830Y0009094D01*
X0243889Y0009228D01*
X0243944Y0009364D01*
X0243996Y0009501D01*
X0244044Y0009640D01*
X0244088Y0009779D01*
X0244128Y0009920D01*
X0244165Y0010062D01*
X0244198Y0010204D01*
X0244227Y0010348D01*
X0244252Y0010492D01*
X0244273Y0010637D01*
X0244291Y0010782D01*
X0244304Y0010928D01*
X0244314Y0011074D01*
X0244320Y0011221D01*
X0244322Y0011367D01*
X0244322Y0016367D01*
X0254322Y0026367D01*
X0254322Y0155367D01*
X0244322Y0165367D01*
X0244322Y0206367D01*
X0244357Y0206524D01*
X0244387Y0206683D01*
X0244414Y0206842D01*
X0244437Y0207001D01*
X0244456Y0207161D01*
X0244471Y0207322D01*
X0244482Y0207483D01*
X0244489Y0207644D01*
X0244493Y0207805D01*
X0244492Y0207966D01*
X0244488Y0208127D01*
X0244480Y0208288D01*
X0244468Y0208449D01*
X0244452Y0208609D01*
X0244432Y0208769D01*
X0244408Y0208929D01*
X0244380Y0209088D01*
X0244349Y0209246D01*
X0244314Y0209403D01*
X0244275Y0209560D01*
X0244232Y0209715D01*
X0244185Y0209869D01*
X0244135Y0210023D01*
X0244081Y0210174D01*
X0244024Y0210325D01*
X0243962Y0210474D01*
X0243898Y0210622D01*
X0243829Y0210768D01*
X0243757Y0210912D01*
X0243682Y0211055D01*
X0243603Y0211195D01*
X0243521Y0211334D01*
X0243436Y0211471D01*
X0243347Y0211605D01*
X0243255Y0211738D01*
X0243160Y0211868D01*
X0243062Y0211996D01*
X0242961Y0212121D01*
X0242856Y0212244D01*
X0242749Y0212364D01*
X0242639Y0212482D01*
X0242526Y0212597D01*
X0242410Y0212709D01*
X0242292Y0212819D01*
X0242171Y0212926D01*
X0242047Y0213029D01*
X0241922Y0213130D01*
X0241793Y0213227D01*
X0241662Y0213322D01*
X0241530Y0213413D01*
X0241394Y0213501D01*
X0241257Y0213585D01*
X0241118Y0213667D01*
X0240977Y0213745D01*
X0240834Y0213819D01*
X0240689Y0213890D01*
X0240543Y0213958D01*
X0240395Y0214022D01*
X0240245Y0214082D01*
X0240095Y0214139D01*
X0239942Y0214192D01*
X0239789Y0214241D01*
X0239634Y0214287D01*
X0239479Y0214329D01*
X0239322Y0214367D01*
X0006322Y0214367D01*
X0006189Y0214351D01*
X0006056Y0214330D01*
X0005924Y0214305D01*
X0005793Y0214277D01*
X0005663Y0214244D01*
X0005534Y0214208D01*
X0005406Y0214168D01*
X0005279Y0214124D01*
X0005153Y0214076D01*
X0005029Y0214025D01*
X0004907Y0213970D01*
X0004786Y0213912D01*
X0004667Y0213849D01*
X0004550Y0213784D01*
X0004435Y0213715D01*
X0004322Y0213642D01*
X0004211Y0213567D01*
X0004103Y0213488D01*
X0003997Y0213406D01*
X0003893Y0213320D01*
X0003792Y0213232D01*
X0003694Y0213141D01*
X0003598Y0213047D01*
X0003505Y0212950D01*
X0003415Y0212850D01*
X0003329Y0212748D01*
X0003245Y0212643D01*
X0003164Y0212536D01*
X0003087Y0212426D01*
X0003012Y0212314D01*
X0002941Y0212200D01*
X0002874Y0212084D01*
X0002810Y0211966D01*
X0002750Y0211847D01*
X0002693Y0211725D01*
X0002640Y0211602D01*
X0002590Y0211477D01*
X0002544Y0211351D01*
X0002502Y0211224D01*
X0002464Y0211095D01*
X0002429Y0210965D01*
X0002399Y0210835D01*
X0002372Y0210703D01*
X0002349Y0210571D01*
X0002330Y0210438D01*
X0002315Y0210305D01*
X0002304Y0210171D01*
X0002297Y0210037D01*
X0002294Y0209903D01*
X0002295Y0209769D01*
X0002300Y0209634D01*
X0002309Y0209501D01*
X0002322Y0209367D01*
X0002322Y0009367D01*
X0002332Y0009247D01*
X0002346Y0009127D01*
X0002364Y0009008D01*
X0002385Y0008890D01*
X0002410Y0008772D01*
X0002439Y0008655D01*
X0002472Y0008539D01*
X0002508Y0008424D01*
X0002548Y0008310D01*
X0002592Y0008198D01*
X0002639Y0008087D01*
X0002690Y0007978D01*
X0002744Y0007871D01*
X0002802Y0007765D01*
X0002863Y0007661D01*
X0002928Y0007559D01*
X0002995Y0007459D01*
X0003066Y0007362D01*
X0003140Y0007267D01*
X0003216Y0007174D01*
X0003296Y0007084D01*
X0003379Y0006996D01*
X0003464Y0006911D01*
X0003552Y0006829D01*
X0003643Y0006750D01*
X0003736Y0006673D01*
X0003832Y0006600D01*
X0003930Y0006530D01*
X0004030Y0006462D01*
X0004132Y0006399D01*
X0004236Y0006338D01*
X0004342Y0006281D01*
X0004450Y0006227D01*
X0004559Y0006177D01*
X0004670Y0006130D01*
X0004783Y0006087D01*
X0004897Y0006048D01*
X0005012Y0006012D01*
X0005128Y0005980D01*
X0005245Y0005951D01*
X0005363Y0005927D01*
X0005481Y0005906D01*
X0005601Y0005889D01*
X0005720Y0005875D01*
X0005840Y0005866D01*
X0005961Y0005861D01*
X0006081Y0005859D01*
X0006202Y0005861D01*
X0006322Y0005867D01*
X0029779Y0015867D02*
X0029781Y0016025D01*
X0029787Y0016183D01*
X0029797Y0016341D01*
X0029811Y0016499D01*
X0029829Y0016656D01*
X0029850Y0016813D01*
X0029876Y0016969D01*
X0029906Y0017125D01*
X0029939Y0017280D01*
X0029977Y0017433D01*
X0030018Y0017586D01*
X0030063Y0017738D01*
X0030112Y0017889D01*
X0030165Y0018038D01*
X0030221Y0018186D01*
X0030281Y0018332D01*
X0030345Y0018477D01*
X0030413Y0018620D01*
X0030484Y0018762D01*
X0030558Y0018902D01*
X0030636Y0019039D01*
X0030718Y0019175D01*
X0030802Y0019309D01*
X0030891Y0019440D01*
X0030982Y0019569D01*
X0031077Y0019696D01*
X0031174Y0019821D01*
X0031275Y0019943D01*
X0031379Y0020062D01*
X0031486Y0020179D01*
X0031596Y0020293D01*
X0031709Y0020404D01*
X0031824Y0020513D01*
X0031942Y0020618D01*
X0032063Y0020720D01*
X0032186Y0020820D01*
X0032312Y0020916D01*
X0032440Y0021009D01*
X0032570Y0021099D01*
X0032703Y0021185D01*
X0032838Y0021269D01*
X0032974Y0021348D01*
X0033113Y0021425D01*
X0033254Y0021497D01*
X0033396Y0021567D01*
X0033540Y0021632D01*
X0033686Y0021694D01*
X0033833Y0021752D01*
X0033982Y0021807D01*
X0034132Y0021858D01*
X0034283Y0021905D01*
X0034435Y0021948D01*
X0034588Y0021987D01*
X0034743Y0022023D01*
X0034898Y0022054D01*
X0035054Y0022082D01*
X0035210Y0022106D01*
X0035367Y0022126D01*
X0035525Y0022142D01*
X0035682Y0022154D01*
X0035841Y0022162D01*
X0035999Y0022166D01*
X0036157Y0022166D01*
X0036315Y0022162D01*
X0036474Y0022154D01*
X0036631Y0022142D01*
X0036789Y0022126D01*
X0036946Y0022106D01*
X0037102Y0022082D01*
X0037258Y0022054D01*
X0037413Y0022023D01*
X0037568Y0021987D01*
X0037721Y0021948D01*
X0037873Y0021905D01*
X0038024Y0021858D01*
X0038174Y0021807D01*
X0038323Y0021752D01*
X0038470Y0021694D01*
X0038616Y0021632D01*
X0038760Y0021567D01*
X0038902Y0021497D01*
X0039043Y0021425D01*
X0039182Y0021348D01*
X0039318Y0021269D01*
X0039453Y0021185D01*
X0039586Y0021099D01*
X0039716Y0021009D01*
X0039844Y0020916D01*
X0039970Y0020820D01*
X0040093Y0020720D01*
X0040214Y0020618D01*
X0040332Y0020513D01*
X0040447Y0020404D01*
X0040560Y0020293D01*
X0040670Y0020179D01*
X0040777Y0020062D01*
X0040881Y0019943D01*
X0040982Y0019821D01*
X0041079Y0019696D01*
X0041174Y0019569D01*
X0041265Y0019440D01*
X0041354Y0019309D01*
X0041438Y0019175D01*
X0041520Y0019039D01*
X0041598Y0018902D01*
X0041672Y0018762D01*
X0041743Y0018620D01*
X0041811Y0018477D01*
X0041875Y0018332D01*
X0041935Y0018186D01*
X0041991Y0018038D01*
X0042044Y0017889D01*
X0042093Y0017738D01*
X0042138Y0017586D01*
X0042179Y0017433D01*
X0042217Y0017280D01*
X0042250Y0017125D01*
X0042280Y0016969D01*
X0042306Y0016813D01*
X0042327Y0016656D01*
X0042345Y0016499D01*
X0042359Y0016341D01*
X0042369Y0016183D01*
X0042375Y0016025D01*
X0042377Y0015867D01*
X0042375Y0015709D01*
X0042369Y0015551D01*
X0042359Y0015393D01*
X0042345Y0015235D01*
X0042327Y0015078D01*
X0042306Y0014921D01*
X0042280Y0014765D01*
X0042250Y0014609D01*
X0042217Y0014454D01*
X0042179Y0014301D01*
X0042138Y0014148D01*
X0042093Y0013996D01*
X0042044Y0013845D01*
X0041991Y0013696D01*
X0041935Y0013548D01*
X0041875Y0013402D01*
X0041811Y0013257D01*
X0041743Y0013114D01*
X0041672Y0012972D01*
X0041598Y0012832D01*
X0041520Y0012695D01*
X0041438Y0012559D01*
X0041354Y0012425D01*
X0041265Y0012294D01*
X0041174Y0012165D01*
X0041079Y0012038D01*
X0040982Y0011913D01*
X0040881Y0011791D01*
X0040777Y0011672D01*
X0040670Y0011555D01*
X0040560Y0011441D01*
X0040447Y0011330D01*
X0040332Y0011221D01*
X0040214Y0011116D01*
X0040093Y0011014D01*
X0039970Y0010914D01*
X0039844Y0010818D01*
X0039716Y0010725D01*
X0039586Y0010635D01*
X0039453Y0010549D01*
X0039318Y0010465D01*
X0039182Y0010386D01*
X0039043Y0010309D01*
X0038902Y0010237D01*
X0038760Y0010167D01*
X0038616Y0010102D01*
X0038470Y0010040D01*
X0038323Y0009982D01*
X0038174Y0009927D01*
X0038024Y0009876D01*
X0037873Y0009829D01*
X0037721Y0009786D01*
X0037568Y0009747D01*
X0037413Y0009711D01*
X0037258Y0009680D01*
X0037102Y0009652D01*
X0036946Y0009628D01*
X0036789Y0009608D01*
X0036631Y0009592D01*
X0036474Y0009580D01*
X0036315Y0009572D01*
X0036157Y0009568D01*
X0035999Y0009568D01*
X0035841Y0009572D01*
X0035682Y0009580D01*
X0035525Y0009592D01*
X0035367Y0009608D01*
X0035210Y0009628D01*
X0035054Y0009652D01*
X0034898Y0009680D01*
X0034743Y0009711D01*
X0034588Y0009747D01*
X0034435Y0009786D01*
X0034283Y0009829D01*
X0034132Y0009876D01*
X0033982Y0009927D01*
X0033833Y0009982D01*
X0033686Y0010040D01*
X0033540Y0010102D01*
X0033396Y0010167D01*
X0033254Y0010237D01*
X0033113Y0010309D01*
X0032974Y0010386D01*
X0032838Y0010465D01*
X0032703Y0010549D01*
X0032570Y0010635D01*
X0032440Y0010725D01*
X0032312Y0010818D01*
X0032186Y0010914D01*
X0032063Y0011014D01*
X0031942Y0011116D01*
X0031824Y0011221D01*
X0031709Y0011330D01*
X0031596Y0011441D01*
X0031486Y0011555D01*
X0031379Y0011672D01*
X0031275Y0011791D01*
X0031174Y0011913D01*
X0031077Y0012038D01*
X0030982Y0012165D01*
X0030891Y0012294D01*
X0030802Y0012425D01*
X0030718Y0012559D01*
X0030636Y0012695D01*
X0030558Y0012832D01*
X0030484Y0012972D01*
X0030413Y0013114D01*
X0030345Y0013257D01*
X0030281Y0013402D01*
X0030221Y0013548D01*
X0030165Y0013696D01*
X0030112Y0013845D01*
X0030063Y0013996D01*
X0030018Y0014148D01*
X0029977Y0014301D01*
X0029939Y0014454D01*
X0029906Y0014609D01*
X0029876Y0014765D01*
X0029850Y0014921D01*
X0029829Y0015078D01*
X0029811Y0015235D01*
X0029797Y0015393D01*
X0029787Y0015551D01*
X0029781Y0015709D01*
X0029779Y0015867D01*
X0234779Y0035867D02*
X0234781Y0036025D01*
X0234787Y0036183D01*
X0234797Y0036341D01*
X0234811Y0036499D01*
X0234829Y0036656D01*
X0234850Y0036813D01*
X0234876Y0036969D01*
X0234906Y0037125D01*
X0234939Y0037280D01*
X0234977Y0037433D01*
X0235018Y0037586D01*
X0235063Y0037738D01*
X0235112Y0037889D01*
X0235165Y0038038D01*
X0235221Y0038186D01*
X0235281Y0038332D01*
X0235345Y0038477D01*
X0235413Y0038620D01*
X0235484Y0038762D01*
X0235558Y0038902D01*
X0235636Y0039039D01*
X0235718Y0039175D01*
X0235802Y0039309D01*
X0235891Y0039440D01*
X0235982Y0039569D01*
X0236077Y0039696D01*
X0236174Y0039821D01*
X0236275Y0039943D01*
X0236379Y0040062D01*
X0236486Y0040179D01*
X0236596Y0040293D01*
X0236709Y0040404D01*
X0236824Y0040513D01*
X0236942Y0040618D01*
X0237063Y0040720D01*
X0237186Y0040820D01*
X0237312Y0040916D01*
X0237440Y0041009D01*
X0237570Y0041099D01*
X0237703Y0041185D01*
X0237838Y0041269D01*
X0237974Y0041348D01*
X0238113Y0041425D01*
X0238254Y0041497D01*
X0238396Y0041567D01*
X0238540Y0041632D01*
X0238686Y0041694D01*
X0238833Y0041752D01*
X0238982Y0041807D01*
X0239132Y0041858D01*
X0239283Y0041905D01*
X0239435Y0041948D01*
X0239588Y0041987D01*
X0239743Y0042023D01*
X0239898Y0042054D01*
X0240054Y0042082D01*
X0240210Y0042106D01*
X0240367Y0042126D01*
X0240525Y0042142D01*
X0240682Y0042154D01*
X0240841Y0042162D01*
X0240999Y0042166D01*
X0241157Y0042166D01*
X0241315Y0042162D01*
X0241474Y0042154D01*
X0241631Y0042142D01*
X0241789Y0042126D01*
X0241946Y0042106D01*
X0242102Y0042082D01*
X0242258Y0042054D01*
X0242413Y0042023D01*
X0242568Y0041987D01*
X0242721Y0041948D01*
X0242873Y0041905D01*
X0243024Y0041858D01*
X0243174Y0041807D01*
X0243323Y0041752D01*
X0243470Y0041694D01*
X0243616Y0041632D01*
X0243760Y0041567D01*
X0243902Y0041497D01*
X0244043Y0041425D01*
X0244182Y0041348D01*
X0244318Y0041269D01*
X0244453Y0041185D01*
X0244586Y0041099D01*
X0244716Y0041009D01*
X0244844Y0040916D01*
X0244970Y0040820D01*
X0245093Y0040720D01*
X0245214Y0040618D01*
X0245332Y0040513D01*
X0245447Y0040404D01*
X0245560Y0040293D01*
X0245670Y0040179D01*
X0245777Y0040062D01*
X0245881Y0039943D01*
X0245982Y0039821D01*
X0246079Y0039696D01*
X0246174Y0039569D01*
X0246265Y0039440D01*
X0246354Y0039309D01*
X0246438Y0039175D01*
X0246520Y0039039D01*
X0246598Y0038902D01*
X0246672Y0038762D01*
X0246743Y0038620D01*
X0246811Y0038477D01*
X0246875Y0038332D01*
X0246935Y0038186D01*
X0246991Y0038038D01*
X0247044Y0037889D01*
X0247093Y0037738D01*
X0247138Y0037586D01*
X0247179Y0037433D01*
X0247217Y0037280D01*
X0247250Y0037125D01*
X0247280Y0036969D01*
X0247306Y0036813D01*
X0247327Y0036656D01*
X0247345Y0036499D01*
X0247359Y0036341D01*
X0247369Y0036183D01*
X0247375Y0036025D01*
X0247377Y0035867D01*
X0247375Y0035709D01*
X0247369Y0035551D01*
X0247359Y0035393D01*
X0247345Y0035235D01*
X0247327Y0035078D01*
X0247306Y0034921D01*
X0247280Y0034765D01*
X0247250Y0034609D01*
X0247217Y0034454D01*
X0247179Y0034301D01*
X0247138Y0034148D01*
X0247093Y0033996D01*
X0247044Y0033845D01*
X0246991Y0033696D01*
X0246935Y0033548D01*
X0246875Y0033402D01*
X0246811Y0033257D01*
X0246743Y0033114D01*
X0246672Y0032972D01*
X0246598Y0032832D01*
X0246520Y0032695D01*
X0246438Y0032559D01*
X0246354Y0032425D01*
X0246265Y0032294D01*
X0246174Y0032165D01*
X0246079Y0032038D01*
X0245982Y0031913D01*
X0245881Y0031791D01*
X0245777Y0031672D01*
X0245670Y0031555D01*
X0245560Y0031441D01*
X0245447Y0031330D01*
X0245332Y0031221D01*
X0245214Y0031116D01*
X0245093Y0031014D01*
X0244970Y0030914D01*
X0244844Y0030818D01*
X0244716Y0030725D01*
X0244586Y0030635D01*
X0244453Y0030549D01*
X0244318Y0030465D01*
X0244182Y0030386D01*
X0244043Y0030309D01*
X0243902Y0030237D01*
X0243760Y0030167D01*
X0243616Y0030102D01*
X0243470Y0030040D01*
X0243323Y0029982D01*
X0243174Y0029927D01*
X0243024Y0029876D01*
X0242873Y0029829D01*
X0242721Y0029786D01*
X0242568Y0029747D01*
X0242413Y0029711D01*
X0242258Y0029680D01*
X0242102Y0029652D01*
X0241946Y0029628D01*
X0241789Y0029608D01*
X0241631Y0029592D01*
X0241474Y0029580D01*
X0241315Y0029572D01*
X0241157Y0029568D01*
X0240999Y0029568D01*
X0240841Y0029572D01*
X0240682Y0029580D01*
X0240525Y0029592D01*
X0240367Y0029608D01*
X0240210Y0029628D01*
X0240054Y0029652D01*
X0239898Y0029680D01*
X0239743Y0029711D01*
X0239588Y0029747D01*
X0239435Y0029786D01*
X0239283Y0029829D01*
X0239132Y0029876D01*
X0238982Y0029927D01*
X0238833Y0029982D01*
X0238686Y0030040D01*
X0238540Y0030102D01*
X0238396Y0030167D01*
X0238254Y0030237D01*
X0238113Y0030309D01*
X0237974Y0030386D01*
X0237838Y0030465D01*
X0237703Y0030549D01*
X0237570Y0030635D01*
X0237440Y0030725D01*
X0237312Y0030818D01*
X0237186Y0030914D01*
X0237063Y0031014D01*
X0236942Y0031116D01*
X0236824Y0031221D01*
X0236709Y0031330D01*
X0236596Y0031441D01*
X0236486Y0031555D01*
X0236379Y0031672D01*
X0236275Y0031791D01*
X0236174Y0031913D01*
X0236077Y0032038D01*
X0235982Y0032165D01*
X0235891Y0032294D01*
X0235802Y0032425D01*
X0235718Y0032559D01*
X0235636Y0032695D01*
X0235558Y0032832D01*
X0235484Y0032972D01*
X0235413Y0033114D01*
X0235345Y0033257D01*
X0235281Y0033402D01*
X0235221Y0033548D01*
X0235165Y0033696D01*
X0235112Y0033845D01*
X0235063Y0033996D01*
X0235018Y0034148D01*
X0234977Y0034301D01*
X0234939Y0034454D01*
X0234906Y0034609D01*
X0234876Y0034765D01*
X0234850Y0034921D01*
X0234829Y0035078D01*
X0234811Y0035235D01*
X0234797Y0035393D01*
X0234787Y0035551D01*
X0234781Y0035709D01*
X0234779Y0035867D01*
X0234779Y0145867D02*
X0234781Y0146025D01*
X0234787Y0146183D01*
X0234797Y0146341D01*
X0234811Y0146499D01*
X0234829Y0146656D01*
X0234850Y0146813D01*
X0234876Y0146969D01*
X0234906Y0147125D01*
X0234939Y0147280D01*
X0234977Y0147433D01*
X0235018Y0147586D01*
X0235063Y0147738D01*
X0235112Y0147889D01*
X0235165Y0148038D01*
X0235221Y0148186D01*
X0235281Y0148332D01*
X0235345Y0148477D01*
X0235413Y0148620D01*
X0235484Y0148762D01*
X0235558Y0148902D01*
X0235636Y0149039D01*
X0235718Y0149175D01*
X0235802Y0149309D01*
X0235891Y0149440D01*
X0235982Y0149569D01*
X0236077Y0149696D01*
X0236174Y0149821D01*
X0236275Y0149943D01*
X0236379Y0150062D01*
X0236486Y0150179D01*
X0236596Y0150293D01*
X0236709Y0150404D01*
X0236824Y0150513D01*
X0236942Y0150618D01*
X0237063Y0150720D01*
X0237186Y0150820D01*
X0237312Y0150916D01*
X0237440Y0151009D01*
X0237570Y0151099D01*
X0237703Y0151185D01*
X0237838Y0151269D01*
X0237974Y0151348D01*
X0238113Y0151425D01*
X0238254Y0151497D01*
X0238396Y0151567D01*
X0238540Y0151632D01*
X0238686Y0151694D01*
X0238833Y0151752D01*
X0238982Y0151807D01*
X0239132Y0151858D01*
X0239283Y0151905D01*
X0239435Y0151948D01*
X0239588Y0151987D01*
X0239743Y0152023D01*
X0239898Y0152054D01*
X0240054Y0152082D01*
X0240210Y0152106D01*
X0240367Y0152126D01*
X0240525Y0152142D01*
X0240682Y0152154D01*
X0240841Y0152162D01*
X0240999Y0152166D01*
X0241157Y0152166D01*
X0241315Y0152162D01*
X0241474Y0152154D01*
X0241631Y0152142D01*
X0241789Y0152126D01*
X0241946Y0152106D01*
X0242102Y0152082D01*
X0242258Y0152054D01*
X0242413Y0152023D01*
X0242568Y0151987D01*
X0242721Y0151948D01*
X0242873Y0151905D01*
X0243024Y0151858D01*
X0243174Y0151807D01*
X0243323Y0151752D01*
X0243470Y0151694D01*
X0243616Y0151632D01*
X0243760Y0151567D01*
X0243902Y0151497D01*
X0244043Y0151425D01*
X0244182Y0151348D01*
X0244318Y0151269D01*
X0244453Y0151185D01*
X0244586Y0151099D01*
X0244716Y0151009D01*
X0244844Y0150916D01*
X0244970Y0150820D01*
X0245093Y0150720D01*
X0245214Y0150618D01*
X0245332Y0150513D01*
X0245447Y0150404D01*
X0245560Y0150293D01*
X0245670Y0150179D01*
X0245777Y0150062D01*
X0245881Y0149943D01*
X0245982Y0149821D01*
X0246079Y0149696D01*
X0246174Y0149569D01*
X0246265Y0149440D01*
X0246354Y0149309D01*
X0246438Y0149175D01*
X0246520Y0149039D01*
X0246598Y0148902D01*
X0246672Y0148762D01*
X0246743Y0148620D01*
X0246811Y0148477D01*
X0246875Y0148332D01*
X0246935Y0148186D01*
X0246991Y0148038D01*
X0247044Y0147889D01*
X0247093Y0147738D01*
X0247138Y0147586D01*
X0247179Y0147433D01*
X0247217Y0147280D01*
X0247250Y0147125D01*
X0247280Y0146969D01*
X0247306Y0146813D01*
X0247327Y0146656D01*
X0247345Y0146499D01*
X0247359Y0146341D01*
X0247369Y0146183D01*
X0247375Y0146025D01*
X0247377Y0145867D01*
X0247375Y0145709D01*
X0247369Y0145551D01*
X0247359Y0145393D01*
X0247345Y0145235D01*
X0247327Y0145078D01*
X0247306Y0144921D01*
X0247280Y0144765D01*
X0247250Y0144609D01*
X0247217Y0144454D01*
X0247179Y0144301D01*
X0247138Y0144148D01*
X0247093Y0143996D01*
X0247044Y0143845D01*
X0246991Y0143696D01*
X0246935Y0143548D01*
X0246875Y0143402D01*
X0246811Y0143257D01*
X0246743Y0143114D01*
X0246672Y0142972D01*
X0246598Y0142832D01*
X0246520Y0142695D01*
X0246438Y0142559D01*
X0246354Y0142425D01*
X0246265Y0142294D01*
X0246174Y0142165D01*
X0246079Y0142038D01*
X0245982Y0141913D01*
X0245881Y0141791D01*
X0245777Y0141672D01*
X0245670Y0141555D01*
X0245560Y0141441D01*
X0245447Y0141330D01*
X0245332Y0141221D01*
X0245214Y0141116D01*
X0245093Y0141014D01*
X0244970Y0140914D01*
X0244844Y0140818D01*
X0244716Y0140725D01*
X0244586Y0140635D01*
X0244453Y0140549D01*
X0244318Y0140465D01*
X0244182Y0140386D01*
X0244043Y0140309D01*
X0243902Y0140237D01*
X0243760Y0140167D01*
X0243616Y0140102D01*
X0243470Y0140040D01*
X0243323Y0139982D01*
X0243174Y0139927D01*
X0243024Y0139876D01*
X0242873Y0139829D01*
X0242721Y0139786D01*
X0242568Y0139747D01*
X0242413Y0139711D01*
X0242258Y0139680D01*
X0242102Y0139652D01*
X0241946Y0139628D01*
X0241789Y0139608D01*
X0241631Y0139592D01*
X0241474Y0139580D01*
X0241315Y0139572D01*
X0241157Y0139568D01*
X0240999Y0139568D01*
X0240841Y0139572D01*
X0240682Y0139580D01*
X0240525Y0139592D01*
X0240367Y0139608D01*
X0240210Y0139628D01*
X0240054Y0139652D01*
X0239898Y0139680D01*
X0239743Y0139711D01*
X0239588Y0139747D01*
X0239435Y0139786D01*
X0239283Y0139829D01*
X0239132Y0139876D01*
X0238982Y0139927D01*
X0238833Y0139982D01*
X0238686Y0140040D01*
X0238540Y0140102D01*
X0238396Y0140167D01*
X0238254Y0140237D01*
X0238113Y0140309D01*
X0237974Y0140386D01*
X0237838Y0140465D01*
X0237703Y0140549D01*
X0237570Y0140635D01*
X0237440Y0140725D01*
X0237312Y0140818D01*
X0237186Y0140914D01*
X0237063Y0141014D01*
X0236942Y0141116D01*
X0236824Y0141221D01*
X0236709Y0141330D01*
X0236596Y0141441D01*
X0236486Y0141555D01*
X0236379Y0141672D01*
X0236275Y0141791D01*
X0236174Y0141913D01*
X0236077Y0142038D01*
X0235982Y0142165D01*
X0235891Y0142294D01*
X0235802Y0142425D01*
X0235718Y0142559D01*
X0235636Y0142695D01*
X0235558Y0142832D01*
X0235484Y0142972D01*
X0235413Y0143114D01*
X0235345Y0143257D01*
X0235281Y0143402D01*
X0235221Y0143548D01*
X0235165Y0143696D01*
X0235112Y0143845D01*
X0235063Y0143996D01*
X0235018Y0144148D01*
X0234977Y0144301D01*
X0234939Y0144454D01*
X0234906Y0144609D01*
X0234876Y0144765D01*
X0234850Y0144921D01*
X0234829Y0145078D01*
X0234811Y0145235D01*
X0234797Y0145393D01*
X0234787Y0145551D01*
X0234781Y0145709D01*
X0234779Y0145867D01*
X0034779Y0204867D02*
X0034781Y0205025D01*
X0034787Y0205183D01*
X0034797Y0205341D01*
X0034811Y0205499D01*
X0034829Y0205656D01*
X0034850Y0205813D01*
X0034876Y0205969D01*
X0034906Y0206125D01*
X0034939Y0206280D01*
X0034977Y0206433D01*
X0035018Y0206586D01*
X0035063Y0206738D01*
X0035112Y0206889D01*
X0035165Y0207038D01*
X0035221Y0207186D01*
X0035281Y0207332D01*
X0035345Y0207477D01*
X0035413Y0207620D01*
X0035484Y0207762D01*
X0035558Y0207902D01*
X0035636Y0208039D01*
X0035718Y0208175D01*
X0035802Y0208309D01*
X0035891Y0208440D01*
X0035982Y0208569D01*
X0036077Y0208696D01*
X0036174Y0208821D01*
X0036275Y0208943D01*
X0036379Y0209062D01*
X0036486Y0209179D01*
X0036596Y0209293D01*
X0036709Y0209404D01*
X0036824Y0209513D01*
X0036942Y0209618D01*
X0037063Y0209720D01*
X0037186Y0209820D01*
X0037312Y0209916D01*
X0037440Y0210009D01*
X0037570Y0210099D01*
X0037703Y0210185D01*
X0037838Y0210269D01*
X0037974Y0210348D01*
X0038113Y0210425D01*
X0038254Y0210497D01*
X0038396Y0210567D01*
X0038540Y0210632D01*
X0038686Y0210694D01*
X0038833Y0210752D01*
X0038982Y0210807D01*
X0039132Y0210858D01*
X0039283Y0210905D01*
X0039435Y0210948D01*
X0039588Y0210987D01*
X0039743Y0211023D01*
X0039898Y0211054D01*
X0040054Y0211082D01*
X0040210Y0211106D01*
X0040367Y0211126D01*
X0040525Y0211142D01*
X0040682Y0211154D01*
X0040841Y0211162D01*
X0040999Y0211166D01*
X0041157Y0211166D01*
X0041315Y0211162D01*
X0041474Y0211154D01*
X0041631Y0211142D01*
X0041789Y0211126D01*
X0041946Y0211106D01*
X0042102Y0211082D01*
X0042258Y0211054D01*
X0042413Y0211023D01*
X0042568Y0210987D01*
X0042721Y0210948D01*
X0042873Y0210905D01*
X0043024Y0210858D01*
X0043174Y0210807D01*
X0043323Y0210752D01*
X0043470Y0210694D01*
X0043616Y0210632D01*
X0043760Y0210567D01*
X0043902Y0210497D01*
X0044043Y0210425D01*
X0044182Y0210348D01*
X0044318Y0210269D01*
X0044453Y0210185D01*
X0044586Y0210099D01*
X0044716Y0210009D01*
X0044844Y0209916D01*
X0044970Y0209820D01*
X0045093Y0209720D01*
X0045214Y0209618D01*
X0045332Y0209513D01*
X0045447Y0209404D01*
X0045560Y0209293D01*
X0045670Y0209179D01*
X0045777Y0209062D01*
X0045881Y0208943D01*
X0045982Y0208821D01*
X0046079Y0208696D01*
X0046174Y0208569D01*
X0046265Y0208440D01*
X0046354Y0208309D01*
X0046438Y0208175D01*
X0046520Y0208039D01*
X0046598Y0207902D01*
X0046672Y0207762D01*
X0046743Y0207620D01*
X0046811Y0207477D01*
X0046875Y0207332D01*
X0046935Y0207186D01*
X0046991Y0207038D01*
X0047044Y0206889D01*
X0047093Y0206738D01*
X0047138Y0206586D01*
X0047179Y0206433D01*
X0047217Y0206280D01*
X0047250Y0206125D01*
X0047280Y0205969D01*
X0047306Y0205813D01*
X0047327Y0205656D01*
X0047345Y0205499D01*
X0047359Y0205341D01*
X0047369Y0205183D01*
X0047375Y0205025D01*
X0047377Y0204867D01*
X0047375Y0204709D01*
X0047369Y0204551D01*
X0047359Y0204393D01*
X0047345Y0204235D01*
X0047327Y0204078D01*
X0047306Y0203921D01*
X0047280Y0203765D01*
X0047250Y0203609D01*
X0047217Y0203454D01*
X0047179Y0203301D01*
X0047138Y0203148D01*
X0047093Y0202996D01*
X0047044Y0202845D01*
X0046991Y0202696D01*
X0046935Y0202548D01*
X0046875Y0202402D01*
X0046811Y0202257D01*
X0046743Y0202114D01*
X0046672Y0201972D01*
X0046598Y0201832D01*
X0046520Y0201695D01*
X0046438Y0201559D01*
X0046354Y0201425D01*
X0046265Y0201294D01*
X0046174Y0201165D01*
X0046079Y0201038D01*
X0045982Y0200913D01*
X0045881Y0200791D01*
X0045777Y0200672D01*
X0045670Y0200555D01*
X0045560Y0200441D01*
X0045447Y0200330D01*
X0045332Y0200221D01*
X0045214Y0200116D01*
X0045093Y0200014D01*
X0044970Y0199914D01*
X0044844Y0199818D01*
X0044716Y0199725D01*
X0044586Y0199635D01*
X0044453Y0199549D01*
X0044318Y0199465D01*
X0044182Y0199386D01*
X0044043Y0199309D01*
X0043902Y0199237D01*
X0043760Y0199167D01*
X0043616Y0199102D01*
X0043470Y0199040D01*
X0043323Y0198982D01*
X0043174Y0198927D01*
X0043024Y0198876D01*
X0042873Y0198829D01*
X0042721Y0198786D01*
X0042568Y0198747D01*
X0042413Y0198711D01*
X0042258Y0198680D01*
X0042102Y0198652D01*
X0041946Y0198628D01*
X0041789Y0198608D01*
X0041631Y0198592D01*
X0041474Y0198580D01*
X0041315Y0198572D01*
X0041157Y0198568D01*
X0040999Y0198568D01*
X0040841Y0198572D01*
X0040682Y0198580D01*
X0040525Y0198592D01*
X0040367Y0198608D01*
X0040210Y0198628D01*
X0040054Y0198652D01*
X0039898Y0198680D01*
X0039743Y0198711D01*
X0039588Y0198747D01*
X0039435Y0198786D01*
X0039283Y0198829D01*
X0039132Y0198876D01*
X0038982Y0198927D01*
X0038833Y0198982D01*
X0038686Y0199040D01*
X0038540Y0199102D01*
X0038396Y0199167D01*
X0038254Y0199237D01*
X0038113Y0199309D01*
X0037974Y0199386D01*
X0037838Y0199465D01*
X0037703Y0199549D01*
X0037570Y0199635D01*
X0037440Y0199725D01*
X0037312Y0199818D01*
X0037186Y0199914D01*
X0037063Y0200014D01*
X0036942Y0200116D01*
X0036824Y0200221D01*
X0036709Y0200330D01*
X0036596Y0200441D01*
X0036486Y0200555D01*
X0036379Y0200672D01*
X0036275Y0200791D01*
X0036174Y0200913D01*
X0036077Y0201038D01*
X0035982Y0201165D01*
X0035891Y0201294D01*
X0035802Y0201425D01*
X0035718Y0201559D01*
X0035636Y0201695D01*
X0035558Y0201832D01*
X0035484Y0201972D01*
X0035413Y0202114D01*
X0035345Y0202257D01*
X0035281Y0202402D01*
X0035221Y0202548D01*
X0035165Y0202696D01*
X0035112Y0202845D01*
X0035063Y0202996D01*
X0035018Y0203148D01*
X0034977Y0203301D01*
X0034939Y0203454D01*
X0034906Y0203609D01*
X0034876Y0203765D01*
X0034850Y0203921D01*
X0034829Y0204078D01*
X0034811Y0204235D01*
X0034797Y0204393D01*
X0034787Y0204551D01*
X0034781Y0204709D01*
X0034779Y0204867D01*
D11*
X0055078Y0204867D03*
X0065078Y0204867D03*
X0075078Y0204867D03*
X0085078Y0204867D03*
X0095078Y0204867D03*
X0105078Y0204867D03*
X0115078Y0204867D03*
X0125078Y0204867D03*
X0135078Y0204867D03*
X0145078Y0204867D03*
X0161078Y0204867D03*
X0171078Y0204867D03*
X0181078Y0204867D03*
X0191078Y0204867D03*
X0201078Y0204867D03*
X0211078Y0204867D03*
X0221078Y0204867D03*
X0231078Y0204867D03*
X0231078Y0014867D03*
X0221078Y0014867D03*
X0211078Y0014867D03*
X0201078Y0014867D03*
X0191078Y0014867D03*
X0181078Y0014867D03*
X0161078Y0014867D03*
X0151078Y0014867D03*
X0141078Y0014867D03*
X0131078Y0014867D03*
X0121078Y0014867D03*
X0111078Y0014867D03*
X0101078Y0014867D03*
X0091078Y0014867D03*
D12*
X0101684Y0048111D02*
X0107684Y0048111D01*
X0107684Y0058111D02*
X0101684Y0058111D01*
X0059692Y0111103D02*
X0053692Y0111103D01*
X0053692Y0121103D02*
X0059692Y0121103D01*
X0059692Y0143347D02*
X0053692Y0143347D01*
X0053692Y0153347D02*
X0059692Y0153347D01*
X0059692Y0163347D02*
X0053692Y0163347D01*
X0053692Y0173347D02*
X0059692Y0173347D01*
X0059692Y0183347D02*
X0053692Y0183347D01*
X0200857Y0180158D02*
X0206857Y0180158D01*
X0206857Y0170158D02*
X0200857Y0170158D01*
X0201822Y0147371D02*
X0207822Y0147371D01*
X0207822Y0137371D02*
X0201822Y0137371D01*
X0202759Y0112493D02*
X0208759Y0112493D01*
X0208759Y0102493D02*
X0202759Y0102493D01*
X0202759Y0092493D02*
X0208759Y0092493D01*
X0208759Y0082493D02*
X0202759Y0082493D01*
X0202759Y0072493D02*
X0208759Y0072493D01*
X0208759Y0062493D02*
X0202759Y0062493D01*
X0202759Y0052493D02*
X0208759Y0052493D01*
X0208759Y0042493D02*
X0202759Y0042493D01*
D13*
X0178118Y0056048D03*
X0178118Y0061048D03*
X0178118Y0066048D03*
X0178118Y0071048D03*
X0157518Y0071048D03*
X0157518Y0066048D03*
X0157518Y0061048D03*
X0157518Y0056048D03*
D14*
X0120432Y0040709D03*
X0120432Y0034016D03*
X0187361Y0128504D03*
X0187361Y0135197D03*
X0167676Y0179686D03*
X0167676Y0186378D03*
D15*
X0184015Y0171221D03*
X0190708Y0171221D03*
X0144054Y0056457D03*
X0144054Y0049764D03*
X0164330Y0045237D03*
X0171023Y0045237D03*
D16*
X0120432Y0050158D03*
X0120432Y0056064D03*
D17*
X0120432Y0060807D01*
X0118545Y0060807D01*
X0117933Y0060685D01*
X0117357Y0060446D01*
X0116838Y0060099D01*
X0116396Y0059658D01*
X0116050Y0059139D01*
X0115811Y0058563D01*
X0115689Y0057950D01*
X0115689Y0056064D01*
X0120432Y0056064D01*
X0120432Y0056064D01*
X0120432Y0056063D01*
X0115689Y0056063D01*
X0115689Y0054177D01*
X0115811Y0053564D01*
X0115999Y0053111D01*
X0115689Y0052363D01*
X0115689Y0047953D01*
X0116064Y0047048D01*
X0116064Y0044955D01*
X0115581Y0044472D01*
X0115446Y0044148D01*
X0115446Y0048980D01*
X0114781Y0050585D01*
X0113553Y0051814D01*
X0112105Y0052414D01*
X0111361Y0053157D01*
X0111703Y0053406D01*
X0112389Y0054092D01*
X0112960Y0054878D01*
X0113401Y0055743D01*
X0113701Y0056666D01*
X0113853Y0057625D01*
X0113853Y0058111D01*
X0113853Y0058596D01*
X0113701Y0059555D01*
X0113401Y0060479D01*
X0112960Y0061344D01*
X0112389Y0062129D01*
X0111703Y0062816D01*
X0110917Y0063387D01*
X0110052Y0063827D01*
X0109129Y0064127D01*
X0108170Y0064279D01*
X0104684Y0064279D01*
X0101199Y0064279D01*
X0100240Y0064127D01*
X0099316Y0063827D01*
X0098451Y0063387D01*
X0097666Y0062816D01*
X0096979Y0062129D01*
X0096408Y0061344D01*
X0095968Y0060479D01*
X0095668Y0059555D01*
X0095516Y0058596D01*
X0095516Y0058111D01*
X0104684Y0058111D01*
X0104684Y0064279D01*
X0104684Y0058111D01*
X0104684Y0058111D01*
X0104684Y0058111D01*
X0095516Y0058111D01*
X0095516Y0057625D01*
X0095668Y0056666D01*
X0095968Y0055743D01*
X0096408Y0054878D01*
X0096979Y0054092D01*
X0097666Y0053406D01*
X0098007Y0053157D01*
X0096455Y0051605D01*
X0095516Y0049338D01*
X0095516Y0046884D01*
X0096455Y0044617D01*
X0098190Y0042881D01*
X0100457Y0041942D01*
X0106709Y0041942D01*
X0106709Y0019929D01*
X0106078Y0019297D01*
X0103840Y0021535D01*
X0098316Y0021535D01*
X0096078Y0019297D01*
X0093840Y0021535D01*
X0088316Y0021535D01*
X0084409Y0017629D01*
X0084409Y0012104D01*
X0087479Y0009035D01*
X0042636Y0009035D01*
X0044104Y0010504D01*
X0045546Y0013983D01*
X0045546Y0017750D01*
X0044104Y0021230D01*
X0041441Y0023893D01*
X0037961Y0025334D01*
X0034195Y0025334D01*
X0030715Y0023893D01*
X0028052Y0021230D01*
X0026610Y0017750D01*
X0026610Y0013983D01*
X0028052Y0010504D01*
X0029520Y0009035D01*
X0006843Y0009035D01*
X0006740Y0009070D01*
X0006217Y0009035D01*
X0005986Y0009035D01*
X0005778Y0009106D01*
X0005605Y0009257D01*
X0005502Y0009463D01*
X0005491Y0009535D01*
X0005491Y0208917D01*
X0005541Y0209090D01*
X0005491Y0209542D01*
X0005491Y0209997D01*
X0005480Y0210023D01*
X0005615Y0210492D01*
X0005947Y0210906D01*
X0006411Y0211162D01*
X0006580Y0211198D01*
X0034020Y0211198D01*
X0033052Y0210230D01*
X0031610Y0206750D01*
X0031610Y0202983D01*
X0033052Y0199504D01*
X0035715Y0196840D01*
X0039195Y0195399D01*
X0042961Y0195399D01*
X0046441Y0196840D01*
X0049104Y0199504D01*
X0049663Y0200851D01*
X0052316Y0198198D01*
X0057840Y0198198D01*
X0060078Y0200436D01*
X0062316Y0198198D01*
X0067840Y0198198D01*
X0070078Y0200436D01*
X0072316Y0198198D01*
X0077840Y0198198D01*
X0080078Y0200436D01*
X0082316Y0198198D01*
X0085078Y0198198D01*
X0087840Y0198198D01*
X0090078Y0200436D01*
X0092316Y0198198D01*
X0097840Y0198198D01*
X0100078Y0200436D01*
X0102316Y0198198D01*
X0107840Y0198198D01*
X0110078Y0200436D01*
X0112316Y0198198D01*
X0117840Y0198198D01*
X0120078Y0200436D01*
X0122316Y0198198D01*
X0127840Y0198198D01*
X0130078Y0200436D01*
X0132316Y0198198D01*
X0137840Y0198198D01*
X0140078Y0200436D01*
X0142316Y0198198D01*
X0147840Y0198198D01*
X0151746Y0202104D01*
X0151746Y0207629D01*
X0148177Y0211198D01*
X0157979Y0211198D01*
X0154409Y0207629D01*
X0154409Y0202104D01*
X0158316Y0198198D01*
X0163840Y0198198D01*
X0166078Y0200436D01*
X0168316Y0198198D01*
X0172728Y0198198D01*
X0171847Y0197318D01*
X0171182Y0195712D01*
X0171182Y0191221D01*
X0170472Y0191515D01*
X0164881Y0191515D01*
X0164451Y0191338D01*
X0161661Y0191338D01*
X0161504Y0191717D01*
X0160613Y0192608D01*
X0159448Y0193090D01*
X0152282Y0193090D01*
X0151118Y0192608D01*
X0150226Y0191717D01*
X0149744Y0190552D01*
X0005491Y0190552D01*
X0005491Y0188154D02*
X0049775Y0188154D01*
X0050198Y0188576D02*
X0048463Y0186841D01*
X0047524Y0184574D01*
X0047524Y0182120D01*
X0048463Y0179853D01*
X0049969Y0178347D01*
X0048463Y0176841D01*
X0047524Y0174574D01*
X0047524Y0172120D01*
X0048463Y0169853D01*
X0049969Y0168347D01*
X0048463Y0166841D01*
X0047524Y0164574D01*
X0047524Y0162120D01*
X0048463Y0159853D01*
X0050015Y0158300D01*
X0049674Y0158052D01*
X0048987Y0157365D01*
X0048416Y0156580D01*
X0047976Y0155715D01*
X0047676Y0154791D01*
X0047524Y0153832D01*
X0047524Y0153347D01*
X0056692Y0153347D01*
X0056692Y0153347D01*
X0047524Y0153347D01*
X0047524Y0152861D01*
X0047676Y0151902D01*
X0047976Y0150979D01*
X0048416Y0150114D01*
X0048987Y0149328D01*
X0049674Y0148642D01*
X0050015Y0148394D01*
X0049652Y0148030D01*
X0044760Y0148030D01*
X0043155Y0147365D01*
X0041926Y0146136D01*
X0041261Y0144531D01*
X0041261Y0110234D01*
X0041926Y0108628D01*
X0043155Y0107399D01*
X0044760Y0106734D01*
X0049337Y0106734D01*
X0050198Y0105873D01*
X0052465Y0104934D01*
X0060919Y0104934D01*
X0063186Y0105873D01*
X0064922Y0107609D01*
X0065861Y0109876D01*
X0065861Y0112330D01*
X0064922Y0114597D01*
X0063369Y0116150D01*
X0063711Y0116398D01*
X0064397Y0117084D01*
X0064968Y0117870D01*
X0065409Y0118735D01*
X0065709Y0119658D01*
X0065861Y0120617D01*
X0065861Y0121103D01*
X0065861Y0121588D01*
X0065709Y0122547D01*
X0065409Y0123471D01*
X0064968Y0124336D01*
X0064397Y0125121D01*
X0063711Y0125808D01*
X0062925Y0126379D01*
X0062060Y0126819D01*
X0061137Y0127119D01*
X0060178Y0127271D01*
X0056692Y0127271D01*
X0053207Y0127271D01*
X0052248Y0127119D01*
X0051324Y0126819D01*
X0050459Y0126379D01*
X0049998Y0126043D01*
X0049998Y0138318D01*
X0050198Y0138118D01*
X0052465Y0137178D01*
X0060919Y0137178D01*
X0063186Y0138118D01*
X0064922Y0139853D01*
X0065861Y0142120D01*
X0065861Y0144574D01*
X0064922Y0146841D01*
X0063369Y0148394D01*
X0063711Y0148642D01*
X0064397Y0149328D01*
X0064968Y0150114D01*
X0065409Y0150979D01*
X0065709Y0151902D01*
X0065861Y0152861D01*
X0065861Y0153347D01*
X0065861Y0153832D01*
X0065709Y0154791D01*
X0065409Y0155715D01*
X0064968Y0156580D01*
X0064397Y0157365D01*
X0063711Y0158052D01*
X0063369Y0158300D01*
X0064047Y0158978D01*
X0184884Y0158978D01*
X0186490Y0159644D01*
X0186930Y0160084D01*
X0186930Y0146502D01*
X0187595Y0144896D01*
X0188824Y0143667D01*
X0190429Y0143002D01*
X0197467Y0143002D01*
X0198098Y0142371D01*
X0197467Y0141739D01*
X0186492Y0141739D01*
X0184887Y0141074D01*
X0183851Y0140038D01*
X0183401Y0139852D01*
X0182510Y0138961D01*
X0182028Y0137796D01*
X0182028Y0132599D01*
X0182337Y0131851D01*
X0182149Y0131397D01*
X0182028Y0130785D01*
X0182028Y0128505D01*
X0187361Y0128505D01*
X0187361Y0128504D01*
X0187361Y0128504D01*
X0187361Y0123367D01*
X0184884Y0123367D01*
X0184272Y0123489D01*
X0183695Y0123728D01*
X0183176Y0124075D01*
X0182735Y0124516D01*
X0182388Y0125035D01*
X0182149Y0125612D01*
X0182028Y0126224D01*
X0182028Y0128504D01*
X0187361Y0128504D01*
X0187361Y0123367D01*
X0189839Y0123367D01*
X0190451Y0123489D01*
X0191028Y0123728D01*
X0191547Y0124075D01*
X0191988Y0124516D01*
X0192335Y0125035D01*
X0192573Y0125612D01*
X0192695Y0126224D01*
X0192695Y0128504D01*
X0187362Y0128504D01*
X0187362Y0128505D01*
X0192695Y0128505D01*
X0192695Y0130785D01*
X0192573Y0131397D01*
X0192386Y0131851D01*
X0192695Y0132599D01*
X0192695Y0133002D01*
X0197467Y0133002D01*
X0198328Y0132141D01*
X0200595Y0131202D01*
X0209049Y0131202D01*
X0211316Y0132141D01*
X0212177Y0133002D01*
X0219726Y0133002D01*
X0221332Y0133667D01*
X0222561Y0134896D01*
X0223226Y0136502D01*
X0223226Y0191775D01*
X0222561Y0193381D01*
X0221332Y0194609D01*
X0219726Y0195275D01*
X0215446Y0195275D01*
X0215446Y0199804D01*
X0216078Y0200436D01*
X0218316Y0198198D01*
X0223840Y0198198D01*
X0226078Y0200436D01*
X0228316Y0198198D01*
X0233840Y0198198D01*
X0237746Y0202104D01*
X0237746Y0207629D01*
X0234177Y0211198D01*
X0238867Y0211198D01*
X0239134Y0211114D01*
X0240073Y0210550D01*
X0240792Y0209723D01*
X0241220Y0208714D01*
X0241316Y0207623D01*
X0241261Y0207257D01*
X0241154Y0206997D01*
X0241154Y0206728D01*
X0241093Y0206465D01*
X0241154Y0206103D01*
X0241154Y0164736D01*
X0241636Y0163572D01*
X0242527Y0162681D01*
X0251154Y0154054D01*
X0251154Y0027679D01*
X0241636Y0018161D01*
X0241154Y0016997D01*
X0241154Y0011367D01*
X0241109Y0010912D01*
X0240761Y0010071D01*
X0240117Y0009428D01*
X0239277Y0009080D01*
X0238822Y0009035D01*
X0234677Y0009035D01*
X0237746Y0012104D01*
X0237746Y0017629D01*
X0233840Y0021535D01*
X0228316Y0021535D01*
X0226078Y0019297D01*
X0223840Y0021535D01*
X0218316Y0021535D01*
X0216078Y0019297D01*
X0213840Y0021535D01*
X0208316Y0021535D01*
X0206078Y0019297D01*
X0203840Y0021535D01*
X0198316Y0021535D01*
X0196078Y0019297D01*
X0193840Y0021535D01*
X0188316Y0021535D01*
X0186078Y0019297D01*
X0183840Y0021535D01*
X0178316Y0021535D01*
X0174409Y0017629D01*
X0174409Y0012104D01*
X0177479Y0009035D01*
X0164677Y0009035D01*
X0167746Y0012104D01*
X0167746Y0017629D01*
X0163840Y0021535D01*
X0158316Y0021535D01*
X0156078Y0019297D01*
X0153840Y0021535D01*
X0151078Y0021535D01*
X0151078Y0014867D01*
X0151078Y0014867D01*
X0151078Y0021535D01*
X0148316Y0021535D01*
X0146078Y0019297D01*
X0143840Y0021535D01*
X0141078Y0021535D01*
X0141078Y0014867D01*
X0141078Y0014867D01*
X0141078Y0021535D01*
X0138316Y0021535D01*
X0136612Y0019831D01*
X0136612Y0029648D01*
X0137049Y0029648D01*
X0138655Y0030313D01*
X0139884Y0031542D01*
X0140549Y0033147D01*
X0140549Y0044815D01*
X0140585Y0044791D01*
X0141162Y0044552D01*
X0141774Y0044430D01*
X0144054Y0044430D01*
X0144054Y0049764D01*
X0144054Y0049764D01*
X0144054Y0044430D01*
X0146335Y0044430D01*
X0146947Y0044552D01*
X0147524Y0044791D01*
X0148043Y0045138D01*
X0148484Y0045579D01*
X0148831Y0046098D01*
X0149070Y0046675D01*
X0149191Y0047287D01*
X0149191Y0049764D01*
X0144054Y0049764D01*
X0144054Y0049764D01*
X0149191Y0049764D01*
X0149191Y0052242D01*
X0149070Y0052854D01*
X0148963Y0053111D01*
X0149191Y0053662D01*
X0149191Y0056679D01*
X0150000Y0056679D01*
X0150000Y0054217D01*
X0150482Y0053053D01*
X0151373Y0052162D01*
X0152538Y0051679D01*
X0153150Y0051679D01*
X0153150Y0044620D01*
X0153815Y0043014D01*
X0155044Y0041785D01*
X0156649Y0041120D01*
X0159832Y0041120D01*
X0160567Y0040385D01*
X0161731Y0039903D01*
X0166929Y0039903D01*
X0167676Y0040213D01*
X0168424Y0039903D01*
X0173622Y0039903D01*
X0174786Y0040385D01*
X0175521Y0041120D01*
X0178987Y0041120D01*
X0180593Y0041785D01*
X0181822Y0043014D01*
X0182487Y0044620D01*
X0182487Y0051679D01*
X0183098Y0051679D01*
X0184263Y0052162D01*
X0185154Y0053053D01*
X0185637Y0054217D01*
X0185637Y0056679D01*
X0186930Y0056679D01*
X0186930Y0051624D01*
X0187595Y0050018D01*
X0188824Y0048789D01*
X0190429Y0048124D01*
X0198404Y0048124D01*
X0199082Y0047446D01*
X0198741Y0047198D01*
X0198054Y0046511D01*
X0197483Y0045726D01*
X0197042Y0044861D01*
X0196742Y0043937D01*
X0196591Y0042978D01*
X0196591Y0042493D01*
X0205759Y0042493D01*
X0205759Y0042493D01*
X0214928Y0042493D01*
X0214928Y0042978D01*
X0214776Y0043937D01*
X0214476Y0044861D01*
X0214035Y0045726D01*
X0213464Y0046511D01*
X0212778Y0047198D01*
X0212436Y0047446D01*
X0213114Y0048124D01*
X0219726Y0048124D01*
X0221332Y0048789D01*
X0222561Y0050018D01*
X0223226Y0051624D01*
X0223226Y0083362D01*
X0222561Y0084967D01*
X0221332Y0086196D01*
X0219726Y0086861D01*
X0213114Y0086861D01*
X0212483Y0087493D01*
X0213114Y0088124D01*
X0219726Y0088124D01*
X0221332Y0088789D01*
X0222561Y0090018D01*
X0223226Y0091624D01*
X0223226Y0113035D01*
X0222561Y0114640D01*
X0221332Y0115869D01*
X0219726Y0116534D01*
X0213441Y0116534D01*
X0212253Y0117722D01*
X0209986Y0118661D01*
X0201532Y0118661D01*
X0199265Y0117722D01*
X0197530Y0115987D01*
X0196591Y0113720D01*
X0196591Y0111266D01*
X0197530Y0108998D01*
X0199035Y0107493D01*
X0197530Y0105987D01*
X0196591Y0103720D01*
X0196591Y0101266D01*
X0197530Y0098998D01*
X0199035Y0097493D01*
X0198404Y0096861D01*
X0135311Y0096861D01*
X0133706Y0096196D01*
X0132477Y0094967D01*
X0131812Y0093362D01*
X0131812Y0038385D01*
X0125766Y0038385D01*
X0125766Y0043308D01*
X0125284Y0044472D01*
X0124801Y0044955D01*
X0124801Y0047048D01*
X0125176Y0047953D01*
X0125176Y0052363D01*
X0124866Y0053111D01*
X0125054Y0053564D01*
X0125176Y0054177D01*
X0125176Y0056063D01*
X0120432Y0056063D01*
X0120432Y0056064D01*
X0120432Y0060807D01*
X0122319Y0060807D01*
X0122931Y0060685D01*
X0123508Y0060446D01*
X0124027Y0060099D01*
X0124468Y0059658D01*
X0124815Y0059139D01*
X0125054Y0058563D01*
X0125176Y0057950D01*
X0125176Y0056064D01*
X0120432Y0056064D01*
X0120432Y0056235D02*
X0120432Y0056235D01*
X0120432Y0058634D02*
X0120432Y0058634D01*
X0115840Y0058634D02*
X0113847Y0058634D01*
X0113853Y0058111D02*
X0104684Y0058111D01*
X0104684Y0058111D01*
X0113853Y0058111D01*
X0113561Y0056235D02*
X0115689Y0056235D01*
X0115757Y0053837D02*
X0112134Y0053837D01*
X0113928Y0051438D02*
X0115689Y0051438D01*
X0115689Y0049040D02*
X0115422Y0049040D01*
X0115446Y0046641D02*
X0116064Y0046641D01*
X0115486Y0044243D02*
X0115446Y0044243D01*
X0111078Y0048111D02*
X0104684Y0048111D01*
X0111078Y0048111D02*
X0111078Y0014867D01*
X0106709Y0020258D02*
X0105118Y0020258D01*
X0106709Y0022656D02*
X0042678Y0022656D01*
X0044507Y0020258D02*
X0087038Y0020258D01*
X0084640Y0017859D02*
X0045500Y0017859D01*
X0045546Y0015461D02*
X0084409Y0015461D01*
X0084409Y0013062D02*
X0045164Y0013062D01*
X0044171Y0010664D02*
X0085850Y0010664D01*
X0095118Y0020258D02*
X0097038Y0020258D01*
X0106709Y0025055D02*
X0038636Y0025055D01*
X0033520Y0025055D02*
X0005491Y0025055D01*
X0005491Y0027453D02*
X0106709Y0027453D01*
X0106709Y0029852D02*
X0005491Y0029852D01*
X0005491Y0032250D02*
X0106709Y0032250D01*
X0106709Y0034649D02*
X0005491Y0034649D01*
X0005491Y0037047D02*
X0106709Y0037047D01*
X0106709Y0039446D02*
X0005491Y0039446D01*
X0005491Y0041844D02*
X0106709Y0041844D01*
X0096829Y0044243D02*
X0005491Y0044243D01*
X0005491Y0046641D02*
X0095616Y0046641D01*
X0095516Y0049040D02*
X0005491Y0049040D01*
X0005491Y0051438D02*
X0096386Y0051438D01*
X0097235Y0053837D02*
X0005491Y0053837D01*
X0005491Y0056235D02*
X0095808Y0056235D01*
X0095522Y0058634D02*
X0005491Y0058634D01*
X0005491Y0061032D02*
X0096250Y0061032D01*
X0098538Y0063431D02*
X0005491Y0063431D01*
X0005491Y0065829D02*
X0131812Y0065829D01*
X0131812Y0063431D02*
X0110830Y0063431D01*
X0113119Y0061032D02*
X0131812Y0061032D01*
X0131812Y0058634D02*
X0125024Y0058634D01*
X0125176Y0056235D02*
X0131812Y0056235D01*
X0131812Y0053837D02*
X0125108Y0053837D01*
X0125176Y0051438D02*
X0131812Y0051438D01*
X0131812Y0049040D02*
X0125176Y0049040D01*
X0124801Y0046641D02*
X0131812Y0046641D01*
X0131812Y0044243D02*
X0125379Y0044243D01*
X0125766Y0041844D02*
X0131812Y0041844D01*
X0131812Y0039446D02*
X0125766Y0039446D01*
X0120432Y0040709D02*
X0120432Y0050158D01*
X0104684Y0058634D02*
X0104684Y0058634D01*
X0104684Y0061032D02*
X0104684Y0061032D01*
X0104684Y0063431D02*
X0104684Y0063431D01*
X0131812Y0068228D02*
X0005491Y0068228D01*
X0005491Y0070626D02*
X0131812Y0070626D01*
X0131812Y0073025D02*
X0005491Y0073025D01*
X0005491Y0075423D02*
X0131812Y0075423D01*
X0131812Y0077822D02*
X0005491Y0077822D01*
X0005491Y0080221D02*
X0131812Y0080221D01*
X0131812Y0082619D02*
X0005491Y0082619D01*
X0005491Y0085018D02*
X0131812Y0085018D01*
X0131812Y0087416D02*
X0005491Y0087416D01*
X0005491Y0089815D02*
X0131812Y0089815D01*
X0131812Y0092213D02*
X0005491Y0092213D01*
X0005491Y0094612D02*
X0132330Y0094612D01*
X0136180Y0092493D02*
X0136180Y0061048D01*
X0136180Y0034016D01*
X0132243Y0034016D01*
X0132243Y0014867D01*
X0131078Y0014867D01*
X0136612Y0020258D02*
X0137038Y0020258D01*
X0136612Y0022656D02*
X0246131Y0022656D01*
X0248529Y0025055D02*
X0136612Y0025055D01*
X0136612Y0027453D02*
X0236649Y0027453D01*
X0235715Y0027840D02*
X0239195Y0026399D01*
X0242961Y0026399D01*
X0246441Y0027840D01*
X0249104Y0030504D01*
X0250546Y0033983D01*
X0250546Y0037750D01*
X0249104Y0041230D01*
X0246441Y0043893D01*
X0242961Y0045334D01*
X0239195Y0045334D01*
X0235715Y0043893D01*
X0233052Y0041230D01*
X0231610Y0037750D01*
X0231610Y0033983D01*
X0233052Y0030504D01*
X0235715Y0027840D01*
X0233703Y0029852D02*
X0137542Y0029852D01*
X0140177Y0032250D02*
X0232328Y0032250D01*
X0231610Y0034649D02*
X0140549Y0034649D01*
X0140549Y0037047D02*
X0199859Y0037047D01*
X0199526Y0037217D02*
X0200391Y0036776D01*
X0201315Y0036476D01*
X0202274Y0036324D01*
X0205759Y0036324D01*
X0205759Y0042493D01*
X0205759Y0042493D01*
X0196591Y0042493D01*
X0196591Y0042007D01*
X0196742Y0041048D01*
X0197042Y0040125D01*
X0197483Y0039260D01*
X0198054Y0038474D01*
X0198741Y0037788D01*
X0199526Y0037217D01*
X0197388Y0039446D02*
X0140549Y0039446D01*
X0140549Y0041844D02*
X0154984Y0041844D01*
X0153306Y0044243D02*
X0140549Y0044243D01*
X0144054Y0046641D02*
X0144054Y0046641D01*
X0144054Y0049040D02*
X0144054Y0049040D01*
X0149191Y0049040D02*
X0153150Y0049040D01*
X0153150Y0051438D02*
X0149191Y0051438D01*
X0149191Y0053837D02*
X0150157Y0053837D01*
X0150000Y0056235D02*
X0149191Y0056235D01*
X0144054Y0056457D02*
X0144054Y0061048D01*
X0136180Y0061048D01*
X0144054Y0061048D02*
X0157518Y0061048D01*
X0157518Y0056048D02*
X0157518Y0045489D01*
X0164330Y0045489D01*
X0164330Y0045237D01*
X0166929Y0050571D02*
X0167676Y0050261D01*
X0168424Y0050571D01*
X0173622Y0050571D01*
X0173750Y0050518D01*
X0173750Y0051679D01*
X0173138Y0051679D01*
X0171973Y0052162D01*
X0171082Y0053053D01*
X0170600Y0054217D01*
X0170600Y0057878D01*
X0170877Y0058548D01*
X0170600Y0059217D01*
X0170600Y0062878D01*
X0170877Y0063548D01*
X0170600Y0064217D01*
X0170600Y0067878D01*
X0170877Y0068548D01*
X0170721Y0068924D01*
X0170600Y0069536D01*
X0170600Y0071048D01*
X0178118Y0071048D01*
X0178118Y0075416D01*
X0173456Y0075416D01*
X0172844Y0075294D01*
X0172267Y0075056D01*
X0171748Y0074709D01*
X0171307Y0074268D01*
X0170960Y0073749D01*
X0170721Y0073172D01*
X0170600Y0072560D01*
X0170600Y0071048D01*
X0178118Y0071048D01*
X0178118Y0071048D01*
X0178118Y0071048D01*
X0178118Y0075416D01*
X0182780Y0075416D01*
X0183392Y0075294D01*
X0183969Y0075056D01*
X0184488Y0074709D01*
X0184929Y0074268D01*
X0185276Y0073749D01*
X0185515Y0073172D01*
X0185637Y0072560D01*
X0185637Y0071048D01*
X0178118Y0071048D01*
X0183424Y0071048D01*
X0183424Y0080670D01*
X0188051Y0075423D02*
X0149194Y0075423D01*
X0148802Y0075031D02*
X0149693Y0075922D01*
X0150176Y0077087D01*
X0150176Y0084253D01*
X0149693Y0085417D01*
X0148802Y0086309D01*
X0147637Y0086791D01*
X0140549Y0086791D01*
X0140549Y0088124D01*
X0198404Y0088124D01*
X0199035Y0087493D01*
X0197530Y0085987D01*
X0196591Y0083720D01*
X0196591Y0081266D01*
X0197530Y0078998D01*
X0199035Y0077493D01*
X0198404Y0076861D01*
X0190429Y0076861D01*
X0188824Y0076196D01*
X0187595Y0074967D01*
X0186930Y0073362D01*
X0186930Y0070416D01*
X0185637Y0070416D01*
X0185637Y0071048D01*
X0178118Y0071048D01*
X0157518Y0071048D01*
X0157518Y0075416D01*
X0152856Y0075416D01*
X0152244Y0075294D01*
X0151667Y0075056D01*
X0151148Y0074709D01*
X0150707Y0074268D01*
X0150360Y0073749D01*
X0150121Y0073172D01*
X0150000Y0072560D01*
X0150000Y0071048D01*
X0157518Y0071048D01*
X0157518Y0071048D01*
X0157518Y0071048D01*
X0157518Y0075416D01*
X0162180Y0075416D01*
X0162792Y0075294D01*
X0163369Y0075056D01*
X0163888Y0074709D01*
X0164329Y0074268D01*
X0164676Y0073749D01*
X0164915Y0073172D01*
X0165037Y0072560D01*
X0165037Y0071048D01*
X0157518Y0071048D01*
X0157518Y0071048D01*
X0150000Y0071048D01*
X0150000Y0070416D01*
X0148423Y0070416D01*
X0148423Y0074874D01*
X0148802Y0075031D01*
X0148423Y0073025D02*
X0150092Y0073025D01*
X0150000Y0070626D02*
X0148423Y0070626D01*
X0144054Y0066048D02*
X0157518Y0066048D01*
X0157518Y0071048D02*
X0165037Y0071048D01*
X0165037Y0069536D01*
X0164915Y0068924D01*
X0164759Y0068548D01*
X0165037Y0067878D01*
X0165037Y0064217D01*
X0164759Y0063548D01*
X0165037Y0062878D01*
X0165037Y0059217D01*
X0164759Y0058548D01*
X0165037Y0057878D01*
X0165037Y0054217D01*
X0164554Y0053053D01*
X0163663Y0052162D01*
X0162498Y0051679D01*
X0161887Y0051679D01*
X0161887Y0050571D01*
X0166929Y0050571D01*
X0164879Y0053837D02*
X0170757Y0053837D01*
X0170600Y0056235D02*
X0165037Y0056235D01*
X0164795Y0058634D02*
X0170841Y0058634D01*
X0170600Y0061032D02*
X0165037Y0061032D01*
X0164808Y0063431D02*
X0170829Y0063431D01*
X0170600Y0065829D02*
X0165037Y0065829D01*
X0164892Y0068228D02*
X0170745Y0068228D01*
X0170600Y0070626D02*
X0165037Y0070626D01*
X0164944Y0073025D02*
X0170692Y0073025D01*
X0178118Y0073025D02*
X0178118Y0073025D01*
X0178118Y0071048D02*
X0178118Y0071048D01*
X0178118Y0066048D02*
X0191298Y0066048D01*
X0191298Y0072493D01*
X0205759Y0072493D01*
X0199082Y0067446D02*
X0198741Y0067198D01*
X0198054Y0066511D01*
X0197483Y0065726D01*
X0197042Y0064861D01*
X0196742Y0063937D01*
X0196591Y0062978D01*
X0196591Y0062493D01*
X0205759Y0062493D01*
X0205759Y0062493D01*
X0196591Y0062493D01*
X0196591Y0062007D01*
X0196742Y0061048D01*
X0197042Y0060125D01*
X0197483Y0059260D01*
X0198054Y0058474D01*
X0198741Y0057788D01*
X0199082Y0057539D01*
X0198404Y0056861D01*
X0195667Y0056861D01*
X0195667Y0061917D01*
X0195002Y0063522D01*
X0194976Y0063548D01*
X0195002Y0063573D01*
X0195667Y0065179D01*
X0195667Y0068124D01*
X0198404Y0068124D01*
X0199082Y0067446D01*
X0197559Y0065829D02*
X0195667Y0065829D01*
X0195040Y0063431D02*
X0196662Y0063431D01*
X0196748Y0061032D02*
X0195667Y0061032D01*
X0195667Y0058634D02*
X0197938Y0058634D01*
X0191298Y0061048D02*
X0191298Y0052493D01*
X0205759Y0052493D01*
X0218857Y0052493D01*
X0218857Y0082493D01*
X0205759Y0082493D01*
X0198959Y0087416D02*
X0140549Y0087416D01*
X0136180Y0092493D02*
X0205759Y0092493D01*
X0218857Y0092493D01*
X0218857Y0112166D01*
X0205759Y0112166D01*
X0205759Y0112493D01*
X0201376Y0118597D02*
X0065338Y0118597D01*
X0063436Y0116198D02*
X0197741Y0116198D01*
X0196624Y0113800D02*
X0065252Y0113800D01*
X0065861Y0111401D02*
X0196591Y0111401D01*
X0197528Y0109003D02*
X0065499Y0109003D01*
X0063917Y0106604D02*
X0198147Y0106604D01*
X0196792Y0104206D02*
X0005491Y0104206D01*
X0005491Y0106604D02*
X0049467Y0106604D01*
X0045629Y0111103D02*
X0045629Y0143662D01*
X0056692Y0143662D01*
X0056692Y0143347D01*
X0051001Y0137785D02*
X0049998Y0137785D01*
X0049998Y0135386D02*
X0182028Y0135386D01*
X0182028Y0132988D02*
X0049998Y0132988D01*
X0049998Y0130589D02*
X0182028Y0130589D01*
X0182028Y0128191D02*
X0049998Y0128191D01*
X0056692Y0127271D02*
X0056692Y0121103D01*
X0056692Y0121103D01*
X0056692Y0127271D01*
X0056692Y0125792D02*
X0056692Y0125792D01*
X0056692Y0123394D02*
X0056692Y0123394D01*
X0056692Y0121103D02*
X0065861Y0121103D01*
X0056692Y0121103D01*
X0056692Y0121103D01*
X0063726Y0125792D02*
X0182113Y0125792D01*
X0184752Y0123394D02*
X0065434Y0123394D01*
X0065861Y0120995D02*
X0251154Y0120995D01*
X0251154Y0123394D02*
X0189971Y0123394D01*
X0187361Y0123394D02*
X0187361Y0123394D01*
X0187361Y0125792D02*
X0187361Y0125792D01*
X0187361Y0128191D02*
X0187361Y0128191D01*
X0192695Y0128191D02*
X0251154Y0128191D01*
X0251154Y0130589D02*
X0192695Y0130589D01*
X0192695Y0132988D02*
X0197481Y0132988D01*
X0204822Y0137371D02*
X0187361Y0137371D01*
X0187361Y0135197D01*
X0182028Y0137785D02*
X0062383Y0137785D01*
X0065058Y0140183D02*
X0183996Y0140183D01*
X0187560Y0144980D02*
X0065692Y0144980D01*
X0065861Y0142582D02*
X0197887Y0142582D01*
X0191298Y0147371D02*
X0191298Y0171221D01*
X0190708Y0171221D01*
X0184015Y0171221D02*
X0184015Y0186969D01*
X0201078Y0186969D01*
X0201078Y0204867D01*
X0191298Y0204867D02*
X0191298Y0194843D01*
X0175550Y0194843D01*
X0175550Y0175158D01*
X0167676Y0175158D01*
X0056692Y0175158D01*
X0056692Y0173347D01*
X0049350Y0168965D02*
X0005491Y0168965D01*
X0005491Y0166567D02*
X0048349Y0166567D01*
X0047524Y0164168D02*
X0005491Y0164168D01*
X0005491Y0161770D02*
X0047669Y0161770D01*
X0048944Y0159371D02*
X0005491Y0159371D01*
X0005491Y0156973D02*
X0048702Y0156973D01*
X0047641Y0154574D02*
X0005491Y0154574D01*
X0005491Y0152176D02*
X0047632Y0152176D01*
X0048661Y0149777D02*
X0005491Y0149777D01*
X0005491Y0147379D02*
X0043187Y0147379D01*
X0041447Y0144980D02*
X0005491Y0144980D01*
X0005491Y0142582D02*
X0041261Y0142582D01*
X0041261Y0140183D02*
X0005491Y0140183D01*
X0005491Y0137785D02*
X0041261Y0137785D01*
X0041261Y0135386D02*
X0005491Y0135386D01*
X0005491Y0132988D02*
X0041261Y0132988D01*
X0041261Y0130589D02*
X0005491Y0130589D01*
X0005491Y0128191D02*
X0041261Y0128191D01*
X0041261Y0125792D02*
X0005491Y0125792D01*
X0005491Y0123394D02*
X0041261Y0123394D01*
X0041261Y0120995D02*
X0005491Y0120995D01*
X0005491Y0118597D02*
X0041261Y0118597D01*
X0041261Y0116198D02*
X0005491Y0116198D01*
X0005491Y0113800D02*
X0041261Y0113800D01*
X0041261Y0111401D02*
X0005491Y0111401D01*
X0005491Y0109003D02*
X0041771Y0109003D01*
X0045629Y0111103D02*
X0056692Y0111103D01*
X0064384Y0147379D02*
X0186930Y0147379D01*
X0186930Y0149777D02*
X0064723Y0149777D01*
X0065752Y0152176D02*
X0186930Y0152176D01*
X0186930Y0154574D02*
X0065743Y0154574D01*
X0065861Y0153347D02*
X0056692Y0153347D01*
X0056692Y0153347D01*
X0065861Y0153347D01*
X0064682Y0156973D02*
X0186930Y0156973D01*
X0186930Y0159371D02*
X0185832Y0159371D01*
X0184015Y0163347D02*
X0056692Y0163347D01*
X0047837Y0171364D02*
X0005491Y0171364D01*
X0005491Y0173762D02*
X0047524Y0173762D01*
X0048181Y0176161D02*
X0005491Y0176161D01*
X0005491Y0178559D02*
X0049756Y0178559D01*
X0048005Y0180958D02*
X0005491Y0180958D01*
X0005491Y0183356D02*
X0047524Y0183356D01*
X0048013Y0185755D02*
X0005491Y0185755D01*
X0005491Y0192951D02*
X0151945Y0192951D01*
X0149744Y0190552D02*
X0149744Y0183386D01*
X0150226Y0182221D01*
X0151118Y0181330D01*
X0152282Y0180848D01*
X0159448Y0180848D01*
X0160613Y0181330D01*
X0161504Y0182221D01*
X0161661Y0182601D01*
X0162473Y0182601D01*
X0162343Y0182284D01*
X0162343Y0179526D01*
X0064595Y0179526D01*
X0064922Y0179853D01*
X0065861Y0182120D01*
X0065861Y0184574D01*
X0064922Y0186841D01*
X0063186Y0188576D01*
X0060919Y0189515D01*
X0052465Y0189515D01*
X0050198Y0188576D01*
X0047348Y0197748D02*
X0172277Y0197748D01*
X0171182Y0195349D02*
X0005491Y0195349D01*
X0005491Y0197748D02*
X0034808Y0197748D01*
X0032785Y0200146D02*
X0005491Y0200146D01*
X0005491Y0202545D02*
X0031792Y0202545D01*
X0031610Y0204943D02*
X0005491Y0204943D01*
X0005491Y0207342D02*
X0031855Y0207342D01*
X0032849Y0209740D02*
X0005491Y0209740D01*
X0049370Y0200146D02*
X0050368Y0200146D01*
X0059788Y0200146D02*
X0060368Y0200146D01*
X0069788Y0200146D02*
X0070368Y0200146D01*
X0079788Y0200146D02*
X0080368Y0200146D01*
X0085078Y0200146D02*
X0085078Y0200146D01*
X0085078Y0198198D02*
X0085078Y0204867D01*
X0085078Y0204867D01*
X0085078Y0198198D01*
X0085078Y0202545D02*
X0085078Y0202545D01*
X0089788Y0200146D02*
X0090368Y0200146D01*
X0099788Y0200146D02*
X0100368Y0200146D01*
X0109788Y0200146D02*
X0110368Y0200146D01*
X0119788Y0200146D02*
X0120368Y0200146D01*
X0129788Y0200146D02*
X0130368Y0200146D01*
X0139788Y0200146D02*
X0140368Y0200146D01*
X0149788Y0200146D02*
X0156368Y0200146D01*
X0154409Y0202545D02*
X0151746Y0202545D01*
X0151746Y0204943D02*
X0154409Y0204943D01*
X0154409Y0207342D02*
X0151746Y0207342D01*
X0149635Y0209740D02*
X0156521Y0209740D01*
X0165788Y0200146D02*
X0166368Y0200146D01*
X0171182Y0192951D02*
X0159786Y0192951D01*
X0155865Y0186969D02*
X0167676Y0186969D01*
X0167676Y0186378D01*
X0162343Y0180958D02*
X0159714Y0180958D01*
X0152016Y0180958D02*
X0065379Y0180958D01*
X0065861Y0183356D02*
X0149756Y0183356D01*
X0149744Y0185755D02*
X0065371Y0185755D01*
X0063609Y0188154D02*
X0149744Y0188154D01*
X0167676Y0179686D02*
X0167676Y0175158D01*
X0184015Y0171221D02*
X0184015Y0163347D01*
X0191298Y0147371D02*
X0204822Y0147371D01*
X0204822Y0137371D02*
X0218857Y0137371D01*
X0218857Y0190906D01*
X0211078Y0190906D01*
X0211078Y0204867D01*
X0215788Y0200146D02*
X0216368Y0200146D01*
X0215446Y0197748D02*
X0241154Y0197748D01*
X0241154Y0195349D02*
X0215446Y0195349D01*
X0222739Y0192951D02*
X0241154Y0192951D01*
X0241154Y0190552D02*
X0223226Y0190552D01*
X0223226Y0188154D02*
X0241154Y0188154D01*
X0241154Y0185755D02*
X0223226Y0185755D01*
X0223226Y0183356D02*
X0241154Y0183356D01*
X0241154Y0180958D02*
X0223226Y0180958D01*
X0223226Y0178559D02*
X0241154Y0178559D01*
X0241154Y0176161D02*
X0223226Y0176161D01*
X0223226Y0173762D02*
X0241154Y0173762D01*
X0241154Y0171364D02*
X0223226Y0171364D01*
X0223226Y0168965D02*
X0241154Y0168965D01*
X0241154Y0166567D02*
X0223226Y0166567D01*
X0223226Y0164168D02*
X0241389Y0164168D01*
X0243438Y0161770D02*
X0223226Y0161770D01*
X0223226Y0159371D02*
X0245836Y0159371D01*
X0248235Y0156973D02*
X0223226Y0156973D01*
X0223226Y0154574D02*
X0237360Y0154574D01*
X0235715Y0153893D02*
X0233052Y0151230D01*
X0231610Y0147750D01*
X0231610Y0143983D01*
X0233052Y0140504D01*
X0235715Y0137840D01*
X0239195Y0136399D01*
X0242961Y0136399D01*
X0246441Y0137840D01*
X0249104Y0140504D01*
X0250546Y0143983D01*
X0250546Y0147750D01*
X0249104Y0151230D01*
X0246441Y0153893D01*
X0242961Y0155334D01*
X0239195Y0155334D01*
X0235715Y0153893D01*
X0233998Y0152176D02*
X0223226Y0152176D01*
X0223226Y0149777D02*
X0232450Y0149777D01*
X0231610Y0147379D02*
X0223226Y0147379D01*
X0223226Y0144980D02*
X0231610Y0144980D01*
X0232191Y0142582D02*
X0223226Y0142582D01*
X0223226Y0140183D02*
X0233372Y0140183D01*
X0235849Y0137785D02*
X0223226Y0137785D01*
X0222764Y0135386D02*
X0251154Y0135386D01*
X0251154Y0132988D02*
X0212163Y0132988D01*
X0210142Y0118597D02*
X0251154Y0118597D01*
X0251154Y0116198D02*
X0220538Y0116198D01*
X0222909Y0113800D02*
X0251154Y0113800D01*
X0251154Y0111401D02*
X0223226Y0111401D01*
X0223226Y0109003D02*
X0251154Y0109003D01*
X0251154Y0106604D02*
X0223226Y0106604D01*
X0223226Y0104206D02*
X0251154Y0104206D01*
X0251154Y0101807D02*
X0223226Y0101807D01*
X0223226Y0099409D02*
X0251154Y0099409D01*
X0251154Y0097010D02*
X0223226Y0097010D01*
X0223226Y0094612D02*
X0251154Y0094612D01*
X0251154Y0092213D02*
X0223226Y0092213D01*
X0222357Y0089815D02*
X0251154Y0089815D01*
X0251154Y0087416D02*
X0212559Y0087416D01*
X0222511Y0085018D02*
X0251154Y0085018D01*
X0251154Y0082619D02*
X0223226Y0082619D01*
X0223226Y0080221D02*
X0251154Y0080221D01*
X0251154Y0077822D02*
X0223226Y0077822D01*
X0223226Y0075423D02*
X0251154Y0075423D01*
X0251154Y0073025D02*
X0223226Y0073025D01*
X0223226Y0070626D02*
X0251154Y0070626D01*
X0251154Y0068228D02*
X0223226Y0068228D01*
X0223226Y0065829D02*
X0251154Y0065829D01*
X0251154Y0063431D02*
X0223226Y0063431D01*
X0223226Y0061032D02*
X0251154Y0061032D01*
X0251154Y0058634D02*
X0223226Y0058634D01*
X0223226Y0056235D02*
X0251154Y0056235D01*
X0251154Y0053837D02*
X0223226Y0053837D01*
X0223149Y0051438D02*
X0251154Y0051438D01*
X0251154Y0049040D02*
X0221583Y0049040D01*
X0214676Y0044243D02*
X0236560Y0044243D01*
X0233666Y0041844D02*
X0214902Y0041844D01*
X0214928Y0042007D02*
X0214928Y0042493D01*
X0205759Y0042493D01*
X0205759Y0036324D01*
X0209245Y0036324D01*
X0210204Y0036476D01*
X0211127Y0036776D01*
X0211992Y0037217D01*
X0212778Y0037788D01*
X0213464Y0038474D01*
X0214035Y0039260D01*
X0214476Y0040125D01*
X0214776Y0041048D01*
X0214928Y0042007D01*
X0214130Y0039446D02*
X0232313Y0039446D01*
X0231610Y0037047D02*
X0211659Y0037047D01*
X0205759Y0037047D02*
X0205759Y0037047D01*
X0205759Y0039446D02*
X0205759Y0039446D01*
X0205759Y0041844D02*
X0205759Y0041844D01*
X0205759Y0042493D02*
X0205759Y0042493D01*
X0198184Y0046641D02*
X0182487Y0046641D01*
X0182487Y0049040D02*
X0188573Y0049040D01*
X0187007Y0051438D02*
X0182487Y0051438D01*
X0185479Y0053837D02*
X0186930Y0053837D01*
X0186930Y0056235D02*
X0185637Y0056235D01*
X0191298Y0061048D02*
X0178118Y0061048D01*
X0178118Y0056048D02*
X0178118Y0045489D01*
X0171023Y0045489D01*
X0171023Y0045237D01*
X0173750Y0051438D02*
X0161887Y0051438D01*
X0153150Y0046641D02*
X0149056Y0046641D01*
X0132243Y0034016D02*
X0120432Y0034016D01*
X0141078Y0020258D02*
X0141078Y0020258D01*
X0141078Y0017859D02*
X0141078Y0017859D01*
X0141078Y0015461D02*
X0141078Y0015461D01*
X0141078Y0014867D02*
X0147746Y0014867D01*
X0151078Y0014867D01*
X0151078Y0014867D01*
X0141078Y0014867D01*
X0141078Y0014867D01*
X0145118Y0020258D02*
X0147038Y0020258D01*
X0151078Y0020258D02*
X0151078Y0020258D01*
X0151078Y0017859D02*
X0151078Y0017859D01*
X0151078Y0015461D02*
X0151078Y0015461D01*
X0155118Y0020258D02*
X0157038Y0020258D01*
X0165118Y0020258D02*
X0177038Y0020258D01*
X0174640Y0017859D02*
X0167516Y0017859D01*
X0167746Y0015461D02*
X0174409Y0015461D01*
X0174409Y0013062D02*
X0167746Y0013062D01*
X0166306Y0010664D02*
X0175850Y0010664D01*
X0185118Y0020258D02*
X0187038Y0020258D01*
X0195118Y0020258D02*
X0197038Y0020258D01*
X0205118Y0020258D02*
X0207038Y0020258D01*
X0215118Y0020258D02*
X0217038Y0020258D01*
X0225118Y0020258D02*
X0227038Y0020258D01*
X0235118Y0020258D02*
X0243732Y0020258D01*
X0241511Y0017859D02*
X0237516Y0017859D01*
X0237746Y0015461D02*
X0241154Y0015461D01*
X0241154Y0013062D02*
X0237746Y0013062D01*
X0236306Y0010664D02*
X0241006Y0010664D01*
X0245507Y0027453D02*
X0250928Y0027453D01*
X0251154Y0029852D02*
X0248452Y0029852D01*
X0249828Y0032250D02*
X0251154Y0032250D01*
X0251154Y0034649D02*
X0250546Y0034649D01*
X0250546Y0037047D02*
X0251154Y0037047D01*
X0251154Y0039446D02*
X0249843Y0039446D01*
X0251154Y0041844D02*
X0248490Y0041844D01*
X0251154Y0044243D02*
X0245596Y0044243D01*
X0251154Y0046641D02*
X0213334Y0046641D01*
X0196842Y0044243D02*
X0182330Y0044243D01*
X0180652Y0041844D02*
X0196616Y0041844D01*
X0186930Y0070626D02*
X0185637Y0070626D01*
X0185544Y0073025D02*
X0186930Y0073025D01*
X0197023Y0080221D02*
X0150176Y0080221D01*
X0150176Y0082619D02*
X0196591Y0082619D01*
X0197128Y0085018D02*
X0149859Y0085018D01*
X0144054Y0080670D02*
X0144054Y0066048D01*
X0150176Y0077822D02*
X0198706Y0077822D01*
X0198553Y0097010D02*
X0005491Y0097010D01*
X0005491Y0099409D02*
X0197360Y0099409D01*
X0196591Y0101807D02*
X0005491Y0101807D01*
X0005491Y0022656D02*
X0029478Y0022656D01*
X0027649Y0020258D02*
X0005491Y0020258D01*
X0005491Y0017859D02*
X0026656Y0017859D01*
X0026610Y0015461D02*
X0005491Y0015461D01*
X0005491Y0013062D02*
X0026992Y0013062D01*
X0027985Y0010664D02*
X0005491Y0010664D01*
X0157518Y0073025D02*
X0157518Y0073025D01*
X0192609Y0125792D02*
X0251154Y0125792D01*
X0251154Y0137785D02*
X0246307Y0137785D01*
X0248784Y0140183D02*
X0251154Y0140183D01*
X0251154Y0142582D02*
X0249965Y0142582D01*
X0250546Y0144980D02*
X0251154Y0144980D01*
X0251154Y0147379D02*
X0250546Y0147379D01*
X0251154Y0149777D02*
X0249706Y0149777D01*
X0251154Y0152176D02*
X0248158Y0152176D01*
X0250633Y0154574D02*
X0244796Y0154574D01*
X0241154Y0200146D02*
X0235788Y0200146D01*
X0237746Y0202545D02*
X0241154Y0202545D01*
X0241154Y0204943D02*
X0237746Y0204943D01*
X0237746Y0207342D02*
X0241274Y0207342D01*
X0240777Y0209740D02*
X0235635Y0209740D01*
X0226368Y0200146D02*
X0225788Y0200146D01*
X0191298Y0204867D02*
X0191078Y0204867D01*
D18*
X0155865Y0186969D03*
X0144054Y0080670D03*
X0183424Y0080670D03*
M02*
