G75*
%MOIN*%
%OFA0B0*%
%FSLAX25Y25*%
%IPPOS*%
%LPD*%
%AMOC8*
5,1,8,0,0,1.08239X$1,22.5*
%
%ADD10OC8,0.07000*%
%ADD11C,0.06000*%
%ADD12C,0.02400*%
%ADD13R,0.05906X0.05906*%
D10*
X0091078Y0014867D03*
X0101078Y0014867D03*
X0111078Y0014867D03*
X0121078Y0014867D03*
X0131078Y0014867D03*
X0141078Y0014867D03*
X0151078Y0014867D03*
X0161078Y0014867D03*
X0181078Y0014867D03*
X0191078Y0014867D03*
X0201078Y0014867D03*
X0211078Y0014867D03*
X0221078Y0014867D03*
X0231078Y0014867D03*
X0231078Y0204867D03*
X0221078Y0204867D03*
X0211078Y0204867D03*
X0201078Y0204867D03*
X0191078Y0204867D03*
X0181078Y0204867D03*
X0171078Y0204867D03*
X0161078Y0204867D03*
X0145078Y0204867D03*
X0135078Y0204867D03*
X0125078Y0204867D03*
X0115078Y0204867D03*
X0105078Y0204867D03*
X0095078Y0204867D03*
X0085078Y0204867D03*
X0075078Y0204867D03*
X0065078Y0204867D03*
X0055078Y0204867D03*
D11*
X0053692Y0183347D02*
X0059692Y0183347D01*
X0059692Y0173347D02*
X0053692Y0173347D01*
X0053692Y0163347D02*
X0059692Y0163347D01*
X0059692Y0153347D02*
X0053692Y0153347D01*
X0053692Y0143347D02*
X0059692Y0143347D01*
X0059692Y0121103D02*
X0053692Y0121103D01*
X0053692Y0111103D02*
X0059692Y0111103D01*
X0101684Y0058111D02*
X0107684Y0058111D01*
X0107684Y0048111D02*
X0101684Y0048111D01*
X0202759Y0052493D02*
X0208759Y0052493D01*
X0208759Y0042493D02*
X0202759Y0042493D01*
X0202759Y0062493D02*
X0208759Y0062493D01*
X0208759Y0072493D02*
X0202759Y0072493D01*
X0202759Y0082493D02*
X0208759Y0082493D01*
X0208759Y0092493D02*
X0202759Y0092493D01*
X0202759Y0102493D02*
X0208759Y0102493D01*
X0208759Y0112493D02*
X0202759Y0112493D01*
X0201822Y0137371D02*
X0207822Y0137371D01*
X0207822Y0147371D02*
X0201822Y0147371D01*
X0200857Y0170158D02*
X0206857Y0170158D01*
X0206857Y0180158D02*
X0200857Y0180158D01*
D12*
X0005778Y0009106D02*
X0005605Y0009257D01*
X0005502Y0009463D01*
X0005491Y0009535D01*
X0005491Y0208917D01*
X0005541Y0209090D01*
X0005491Y0209542D01*
X0005491Y0209997D01*
X0005480Y0210023D01*
X0005615Y0210492D01*
X0005947Y0210906D01*
X0006411Y0211162D01*
X0006580Y0211198D01*
X0034020Y0211198D01*
X0033052Y0210230D01*
X0031610Y0206750D01*
X0031610Y0202983D01*
X0033052Y0199504D01*
X0035715Y0196840D01*
X0039195Y0195399D01*
X0042961Y0195399D01*
X0046441Y0196840D01*
X0049104Y0199504D01*
X0049663Y0200851D01*
X0052316Y0198198D01*
X0057840Y0198198D01*
X0060078Y0200436D01*
X0062316Y0198198D01*
X0067840Y0198198D01*
X0070078Y0200436D01*
X0072316Y0198198D01*
X0077840Y0198198D01*
X0080078Y0200436D01*
X0082316Y0198198D01*
X0085078Y0198198D01*
X0087840Y0198198D01*
X0090078Y0200436D01*
X0092316Y0198198D01*
X0097840Y0198198D01*
X0100078Y0200436D01*
X0102316Y0198198D01*
X0107840Y0198198D01*
X0110078Y0200436D01*
X0112316Y0198198D01*
X0117840Y0198198D01*
X0120078Y0200436D01*
X0122316Y0198198D01*
X0127840Y0198198D01*
X0130078Y0200436D01*
X0132316Y0198198D01*
X0137840Y0198198D01*
X0140078Y0200436D01*
X0142316Y0198198D01*
X0147840Y0198198D01*
X0151746Y0202104D01*
X0151746Y0207629D01*
X0148177Y0211198D01*
X0157979Y0211198D01*
X0154409Y0207629D01*
X0154409Y0202104D01*
X0158316Y0198198D01*
X0163840Y0198198D01*
X0166078Y0200436D01*
X0168316Y0198198D01*
X0173840Y0198198D01*
X0176078Y0200436D01*
X0178316Y0198198D01*
X0183840Y0198198D01*
X0186078Y0200436D01*
X0188316Y0198198D01*
X0193840Y0198198D01*
X0196078Y0200436D01*
X0198316Y0198198D01*
X0203840Y0198198D01*
X0206078Y0200436D01*
X0208316Y0198198D01*
X0213840Y0198198D01*
X0216078Y0200436D01*
X0216709Y0199804D01*
X0216709Y0184526D01*
X0211213Y0184526D01*
X0210352Y0185387D01*
X0208084Y0186326D01*
X0199630Y0186326D01*
X0197363Y0185387D01*
X0195628Y0183652D01*
X0194689Y0181385D01*
X0194689Y0178931D01*
X0195628Y0176664D01*
X0197134Y0175158D01*
X0195628Y0173652D01*
X0194689Y0171385D01*
X0194689Y0168931D01*
X0195628Y0166664D01*
X0197363Y0164929D01*
X0199630Y0163989D01*
X0208084Y0163989D01*
X0210352Y0164929D01*
X0211213Y0165789D01*
X0231947Y0165789D01*
X0233553Y0166455D01*
X0234781Y0167683D01*
X0235446Y0169289D01*
X0235446Y0199804D01*
X0237746Y0202104D01*
X0237746Y0207629D01*
X0234177Y0211198D01*
X0238867Y0211198D01*
X0239134Y0211114D01*
X0240073Y0210550D01*
X0240792Y0209723D01*
X0241220Y0208714D01*
X0241316Y0207623D01*
X0241261Y0207257D01*
X0241154Y0206997D01*
X0241154Y0206728D01*
X0241093Y0206465D01*
X0241154Y0206103D01*
X0241154Y0164736D01*
X0241636Y0163572D01*
X0242527Y0162681D01*
X0251154Y0154054D01*
X0251154Y0027679D01*
X0241636Y0018161D01*
X0241154Y0016997D01*
X0241154Y0011367D01*
X0241109Y0010912D01*
X0240761Y0010071D01*
X0240117Y0009428D01*
X0239277Y0009080D01*
X0238822Y0009035D01*
X0234677Y0009035D01*
X0237746Y0012104D01*
X0237746Y0017629D01*
X0235446Y0019929D01*
X0235446Y0028109D01*
X0235715Y0027840D01*
X0239195Y0026399D01*
X0242961Y0026399D01*
X0246441Y0027840D01*
X0249104Y0030504D01*
X0250546Y0033983D01*
X0250546Y0037750D01*
X0249104Y0041230D01*
X0246441Y0043893D01*
X0242961Y0045334D01*
X0239195Y0045334D01*
X0235715Y0043893D01*
X0233052Y0041230D01*
X0231629Y0037794D01*
X0212784Y0037794D01*
X0213464Y0038474D01*
X0214035Y0039260D01*
X0214476Y0040125D01*
X0214776Y0041048D01*
X0214928Y0042007D01*
X0214928Y0042493D01*
X0214928Y0042978D01*
X0214776Y0043937D01*
X0214476Y0044861D01*
X0214035Y0045726D01*
X0213464Y0046511D01*
X0212778Y0047198D01*
X0212436Y0047446D01*
X0213988Y0048998D01*
X0214928Y0051266D01*
X0214928Y0053720D01*
X0213988Y0055987D01*
X0212436Y0057539D01*
X0212778Y0057788D01*
X0213464Y0058474D01*
X0214035Y0059260D01*
X0214476Y0060125D01*
X0214776Y0061048D01*
X0214928Y0062007D01*
X0214928Y0062493D01*
X0214928Y0062978D01*
X0214776Y0063937D01*
X0214476Y0064861D01*
X0214035Y0065726D01*
X0213464Y0066511D01*
X0212778Y0067198D01*
X0212436Y0067446D01*
X0213114Y0068124D01*
X0219726Y0068124D01*
X0221332Y0068789D01*
X0222561Y0070018D01*
X0223226Y0071624D01*
X0223226Y0103362D01*
X0222561Y0104967D01*
X0221332Y0106196D01*
X0219726Y0106861D01*
X0213114Y0106861D01*
X0212483Y0107493D01*
X0212787Y0107797D01*
X0219726Y0107797D01*
X0221332Y0108462D01*
X0222561Y0109691D01*
X0223226Y0111297D01*
X0223226Y0148240D01*
X0222561Y0149845D01*
X0221332Y0151074D01*
X0219726Y0151739D01*
X0212177Y0151739D01*
X0211316Y0152600D01*
X0209049Y0153539D01*
X0200595Y0153539D01*
X0198328Y0152600D01*
X0197467Y0151739D01*
X0160234Y0151739D01*
X0160234Y0181173D01*
X0160613Y0181330D01*
X0161504Y0182221D01*
X0161987Y0183386D01*
X0161987Y0190552D01*
X0216709Y0190552D01*
X0216709Y0188154D02*
X0161987Y0188154D01*
X0161987Y0190552D02*
X0161504Y0191717D01*
X0160613Y0192608D01*
X0159448Y0193090D01*
X0152282Y0193090D01*
X0151118Y0192608D01*
X0150226Y0191717D01*
X0149744Y0190552D01*
X0005491Y0190552D01*
X0005491Y0188154D02*
X0049775Y0188154D01*
X0050198Y0188576D02*
X0048463Y0186841D01*
X0047524Y0184574D01*
X0047524Y0182120D01*
X0048463Y0179853D01*
X0049969Y0178347D01*
X0048463Y0176841D01*
X0047524Y0174574D01*
X0047524Y0172120D01*
X0048463Y0169853D01*
X0049969Y0168347D01*
X0048463Y0166841D01*
X0047524Y0164574D01*
X0047524Y0162120D01*
X0048463Y0159853D01*
X0050015Y0158300D01*
X0049674Y0158052D01*
X0048987Y0157365D01*
X0048416Y0156580D01*
X0047976Y0155715D01*
X0047676Y0154791D01*
X0047524Y0153832D01*
X0047524Y0153347D01*
X0056692Y0153347D01*
X0056692Y0153347D01*
X0047524Y0153347D01*
X0047524Y0152861D01*
X0047676Y0151902D01*
X0047976Y0150979D01*
X0048416Y0150114D01*
X0048987Y0149328D01*
X0049674Y0148642D01*
X0050015Y0148394D01*
X0048463Y0146841D01*
X0047524Y0144574D01*
X0047524Y0142120D01*
X0048463Y0139853D01*
X0050198Y0138118D01*
X0052465Y0137178D01*
X0060919Y0137178D01*
X0063186Y0138118D01*
X0064883Y0139814D01*
X0064883Y0124453D01*
X0064397Y0125121D01*
X0063711Y0125808D01*
X0062925Y0126379D01*
X0062060Y0126819D01*
X0061137Y0127119D01*
X0060178Y0127271D01*
X0056692Y0127271D01*
X0053207Y0127271D01*
X0052248Y0127119D01*
X0051324Y0126819D01*
X0050459Y0126379D01*
X0049674Y0125808D01*
X0048987Y0125121D01*
X0048416Y0124336D01*
X0047976Y0123471D01*
X0047676Y0122547D01*
X0047524Y0121588D01*
X0047524Y0121103D01*
X0056692Y0121103D01*
X0056692Y0127271D01*
X0056692Y0121103D01*
X0056692Y0121103D01*
X0056692Y0121103D01*
X0047524Y0121103D01*
X0047524Y0120617D01*
X0047676Y0119658D01*
X0047976Y0118735D01*
X0048416Y0117870D01*
X0048987Y0117084D01*
X0049674Y0116398D01*
X0050015Y0116150D01*
X0048463Y0114597D01*
X0047524Y0112330D01*
X0047524Y0109876D01*
X0048463Y0107609D01*
X0050198Y0105873D01*
X0052465Y0104934D01*
X0053072Y0104934D01*
X0053072Y0024683D01*
X0053737Y0023077D01*
X0054966Y0021848D01*
X0056571Y0021183D01*
X0087964Y0021183D01*
X0084409Y0017629D01*
X0084409Y0012104D01*
X0087479Y0009035D01*
X0042636Y0009035D01*
X0044104Y0010504D01*
X0045546Y0013983D01*
X0045546Y0017750D01*
X0044104Y0021230D01*
X0041441Y0023893D01*
X0037961Y0025334D01*
X0034195Y0025334D01*
X0030715Y0023893D01*
X0028052Y0021230D01*
X0026610Y0017750D01*
X0026610Y0013983D01*
X0028052Y0010504D01*
X0029520Y0009035D01*
X0006843Y0009035D01*
X0006740Y0009070D01*
X0006217Y0009035D01*
X0005986Y0009035D01*
X0005778Y0009106D01*
X0005491Y0010664D02*
X0027985Y0010664D01*
X0026992Y0013062D02*
X0005491Y0013062D01*
X0005491Y0015461D02*
X0026610Y0015461D01*
X0026656Y0017859D02*
X0005491Y0017859D01*
X0005491Y0020258D02*
X0027649Y0020258D01*
X0029478Y0022656D02*
X0005491Y0022656D01*
X0005491Y0025055D02*
X0033520Y0025055D01*
X0038636Y0025055D02*
X0053072Y0025055D01*
X0053072Y0027453D02*
X0005491Y0027453D01*
X0005491Y0029852D02*
X0053072Y0029852D01*
X0053072Y0032250D02*
X0005491Y0032250D01*
X0005491Y0034649D02*
X0053072Y0034649D01*
X0053072Y0037047D02*
X0005491Y0037047D01*
X0005491Y0039446D02*
X0053072Y0039446D01*
X0053072Y0041844D02*
X0005491Y0041844D01*
X0005491Y0044243D02*
X0053072Y0044243D01*
X0053072Y0046641D02*
X0005491Y0046641D01*
X0005491Y0049040D02*
X0053072Y0049040D01*
X0053072Y0051438D02*
X0005491Y0051438D01*
X0005491Y0053837D02*
X0053072Y0053837D01*
X0053072Y0056235D02*
X0005491Y0056235D01*
X0005491Y0058634D02*
X0053072Y0058634D01*
X0053072Y0061032D02*
X0005491Y0061032D01*
X0005491Y0063431D02*
X0053072Y0063431D01*
X0053072Y0065829D02*
X0005491Y0065829D01*
X0005491Y0068228D02*
X0053072Y0068228D01*
X0053072Y0070626D02*
X0005491Y0070626D01*
X0005491Y0073025D02*
X0053072Y0073025D01*
X0053072Y0075423D02*
X0005491Y0075423D01*
X0005491Y0077822D02*
X0053072Y0077822D01*
X0053072Y0080221D02*
X0005491Y0080221D01*
X0005491Y0082619D02*
X0053072Y0082619D01*
X0053072Y0085018D02*
X0005491Y0085018D01*
X0005491Y0087416D02*
X0053072Y0087416D01*
X0053072Y0089815D02*
X0005491Y0089815D01*
X0005491Y0092213D02*
X0053072Y0092213D01*
X0053072Y0094612D02*
X0005491Y0094612D01*
X0005491Y0097010D02*
X0053072Y0097010D01*
X0053072Y0099409D02*
X0005491Y0099409D01*
X0005491Y0101807D02*
X0053072Y0101807D01*
X0053072Y0104206D02*
X0005491Y0104206D01*
X0005491Y0106604D02*
X0049467Y0106604D01*
X0047885Y0109003D02*
X0005491Y0109003D01*
X0005491Y0111401D02*
X0047524Y0111401D01*
X0048132Y0113800D02*
X0005491Y0113800D01*
X0005491Y0116198D02*
X0049948Y0116198D01*
X0048046Y0118597D02*
X0005491Y0118597D01*
X0005491Y0120995D02*
X0047524Y0120995D01*
X0047951Y0123394D02*
X0005491Y0123394D01*
X0005491Y0125792D02*
X0049658Y0125792D01*
X0056692Y0125792D02*
X0056692Y0125792D01*
X0056692Y0123394D02*
X0056692Y0123394D01*
X0063726Y0125792D02*
X0064883Y0125792D01*
X0064883Y0128191D02*
X0005491Y0128191D01*
X0005491Y0130589D02*
X0064883Y0130589D01*
X0064883Y0132988D02*
X0005491Y0132988D01*
X0005491Y0135386D02*
X0064883Y0135386D01*
X0064883Y0137785D02*
X0062383Y0137785D01*
X0073620Y0137785D02*
X0195654Y0137785D01*
X0195654Y0138598D02*
X0195654Y0136144D01*
X0196593Y0133876D01*
X0198328Y0132141D01*
X0200595Y0131202D01*
X0209049Y0131202D01*
X0211316Y0132141D01*
X0213051Y0133876D01*
X0213991Y0136144D01*
X0213991Y0138598D01*
X0213051Y0140865D01*
X0211546Y0142371D01*
X0212177Y0143002D01*
X0214489Y0143002D01*
X0214489Y0116534D01*
X0213441Y0116534D01*
X0212253Y0117722D01*
X0209986Y0118661D01*
X0201532Y0118661D01*
X0199265Y0117722D01*
X0197530Y0115987D01*
X0196591Y0113720D01*
X0196591Y0111266D01*
X0197530Y0108998D01*
X0199035Y0107493D01*
X0197530Y0105987D01*
X0196591Y0103720D01*
X0196591Y0101266D01*
X0197530Y0098998D01*
X0199035Y0097493D01*
X0197530Y0095987D01*
X0196591Y0093720D01*
X0196591Y0091266D01*
X0197530Y0088998D01*
X0199035Y0087493D01*
X0197530Y0085987D01*
X0196591Y0083720D01*
X0196591Y0081266D01*
X0197530Y0078998D01*
X0199035Y0077493D01*
X0197530Y0075987D01*
X0196591Y0073720D01*
X0196591Y0071266D01*
X0197530Y0068998D01*
X0199082Y0067446D01*
X0198741Y0067198D01*
X0198054Y0066511D01*
X0197483Y0065726D01*
X0197042Y0064861D01*
X0196742Y0063937D01*
X0196591Y0062978D01*
X0196591Y0062493D01*
X0205759Y0062493D01*
X0205759Y0062493D01*
X0214928Y0062493D01*
X0205759Y0062493D01*
X0205759Y0062493D01*
X0196591Y0062493D01*
X0196591Y0062007D01*
X0196742Y0061048D01*
X0197042Y0060125D01*
X0197483Y0059260D01*
X0198054Y0058474D01*
X0198741Y0057788D01*
X0199082Y0057539D01*
X0197530Y0055987D01*
X0196591Y0053720D01*
X0196591Y0051266D01*
X0197530Y0048998D01*
X0199082Y0047446D01*
X0198741Y0047198D01*
X0198054Y0046511D01*
X0197483Y0045726D01*
X0197042Y0044861D01*
X0196742Y0043937D01*
X0196591Y0042978D01*
X0196591Y0042493D01*
X0205759Y0042493D01*
X0205759Y0042493D01*
X0214928Y0042493D01*
X0205759Y0042493D01*
X0205759Y0042493D01*
X0196591Y0042493D01*
X0196591Y0042007D01*
X0196742Y0041048D01*
X0197042Y0040125D01*
X0197483Y0039260D01*
X0198054Y0038474D01*
X0198734Y0037794D01*
X0183856Y0037794D01*
X0183856Y0042169D01*
X0183191Y0043774D01*
X0181962Y0045003D01*
X0180356Y0045668D01*
X0148423Y0045668D01*
X0148423Y0074874D01*
X0148802Y0075031D01*
X0149693Y0075922D01*
X0150176Y0077087D01*
X0150176Y0084253D01*
X0149693Y0085417D01*
X0148802Y0086309D01*
X0147637Y0086791D01*
X0140471Y0086791D01*
X0139307Y0086309D01*
X0138415Y0085417D01*
X0137933Y0084253D01*
X0137933Y0077087D01*
X0138415Y0075922D01*
X0139307Y0075031D01*
X0139686Y0074874D01*
X0139686Y0040431D01*
X0140351Y0038825D01*
X0141382Y0037794D01*
X0073620Y0037794D01*
X0073620Y0184216D01*
X0072955Y0185822D01*
X0071726Y0187050D01*
X0070120Y0187715D01*
X0064047Y0187715D01*
X0063186Y0188576D01*
X0060919Y0189515D01*
X0052465Y0189515D01*
X0050198Y0188576D01*
X0048013Y0185755D02*
X0005491Y0185755D01*
X0005491Y0183356D02*
X0047524Y0183356D01*
X0048005Y0180958D02*
X0005491Y0180958D01*
X0005491Y0178559D02*
X0049756Y0178559D01*
X0048181Y0176161D02*
X0005491Y0176161D01*
X0005491Y0173762D02*
X0047524Y0173762D01*
X0047837Y0171364D02*
X0005491Y0171364D01*
X0005491Y0168965D02*
X0049350Y0168965D01*
X0048349Y0166567D02*
X0005491Y0166567D01*
X0005491Y0164168D02*
X0047524Y0164168D01*
X0047669Y0161770D02*
X0005491Y0161770D01*
X0005491Y0159371D02*
X0048944Y0159371D01*
X0048702Y0156973D02*
X0005491Y0156973D01*
X0005491Y0154574D02*
X0047641Y0154574D01*
X0047632Y0152176D02*
X0005491Y0152176D01*
X0005491Y0149777D02*
X0048661Y0149777D01*
X0049000Y0147379D02*
X0005491Y0147379D01*
X0005491Y0144980D02*
X0047692Y0144980D01*
X0047524Y0142582D02*
X0005491Y0142582D01*
X0005491Y0140183D02*
X0048326Y0140183D01*
X0051001Y0137785D02*
X0005491Y0137785D01*
X0056692Y0111103D02*
X0057440Y0111103D01*
X0057440Y0025552D01*
X0161078Y0025552D01*
X0161078Y0014867D01*
X0151078Y0014867D02*
X0141078Y0014867D01*
X0147746Y0014867D01*
X0151078Y0014867D01*
X0151078Y0014867D01*
X0141078Y0014867D02*
X0141078Y0014867D01*
X0140094Y0039446D02*
X0073620Y0039446D01*
X0073620Y0041844D02*
X0139686Y0041844D01*
X0139686Y0044243D02*
X0112540Y0044243D01*
X0112914Y0044617D02*
X0113853Y0046884D01*
X0113853Y0049338D01*
X0112914Y0051605D01*
X0111361Y0053157D01*
X0111703Y0053406D01*
X0112389Y0054092D01*
X0112960Y0054878D01*
X0113401Y0055743D01*
X0113701Y0056666D01*
X0113853Y0057625D01*
X0113853Y0058111D01*
X0113853Y0058596D01*
X0113701Y0059555D01*
X0113401Y0060479D01*
X0112960Y0061344D01*
X0112389Y0062129D01*
X0111703Y0062816D01*
X0110917Y0063387D01*
X0110052Y0063827D01*
X0109129Y0064127D01*
X0108170Y0064279D01*
X0104684Y0064279D01*
X0101199Y0064279D01*
X0100240Y0064127D01*
X0099316Y0063827D01*
X0098451Y0063387D01*
X0097666Y0062816D01*
X0096979Y0062129D01*
X0096408Y0061344D01*
X0095968Y0060479D01*
X0095668Y0059555D01*
X0095516Y0058596D01*
X0095516Y0058111D01*
X0104684Y0058111D01*
X0104684Y0064279D01*
X0104684Y0058111D01*
X0104684Y0058111D01*
X0104684Y0058111D01*
X0095516Y0058111D01*
X0095516Y0057625D01*
X0095668Y0056666D01*
X0095968Y0055743D01*
X0096408Y0054878D01*
X0096979Y0054092D01*
X0097666Y0053406D01*
X0098007Y0053157D01*
X0096455Y0051605D01*
X0095516Y0049338D01*
X0095516Y0046884D01*
X0096455Y0044617D01*
X0098190Y0042881D01*
X0100457Y0041942D01*
X0108911Y0041942D01*
X0111178Y0042881D01*
X0112914Y0044617D01*
X0113752Y0046641D02*
X0139686Y0046641D01*
X0139686Y0049040D02*
X0113853Y0049040D01*
X0112983Y0051438D02*
X0139686Y0051438D01*
X0139686Y0053837D02*
X0112134Y0053837D01*
X0113561Y0056235D02*
X0139686Y0056235D01*
X0139686Y0058634D02*
X0113847Y0058634D01*
X0113853Y0058111D02*
X0104684Y0058111D01*
X0104684Y0058111D01*
X0113853Y0058111D01*
X0113119Y0061032D02*
X0139686Y0061032D01*
X0139686Y0063431D02*
X0110830Y0063431D01*
X0104684Y0063431D02*
X0104684Y0063431D01*
X0104684Y0061032D02*
X0104684Y0061032D01*
X0104684Y0058634D02*
X0104684Y0058634D01*
X0098538Y0063431D02*
X0073620Y0063431D01*
X0073620Y0065829D02*
X0139686Y0065829D01*
X0139686Y0068228D02*
X0073620Y0068228D01*
X0073620Y0070626D02*
X0139686Y0070626D01*
X0139686Y0073025D02*
X0073620Y0073025D01*
X0073620Y0075423D02*
X0138914Y0075423D01*
X0137933Y0077822D02*
X0073620Y0077822D01*
X0073620Y0080221D02*
X0137933Y0080221D01*
X0137933Y0082619D02*
X0073620Y0082619D01*
X0073620Y0085018D02*
X0138250Y0085018D01*
X0144054Y0080670D02*
X0144054Y0041300D01*
X0179487Y0041300D01*
X0179487Y0033426D01*
X0231078Y0033426D01*
X0231078Y0014867D01*
X0237746Y0015461D02*
X0241154Y0015461D01*
X0241511Y0017859D02*
X0237516Y0017859D01*
X0235446Y0020258D02*
X0243732Y0020258D01*
X0246131Y0022656D02*
X0235446Y0022656D01*
X0235446Y0025055D02*
X0248529Y0025055D01*
X0250928Y0027453D02*
X0245507Y0027453D01*
X0248452Y0029852D02*
X0251154Y0029852D01*
X0251154Y0032250D02*
X0249828Y0032250D01*
X0250546Y0034649D02*
X0251154Y0034649D01*
X0251154Y0037047D02*
X0250546Y0037047D01*
X0251154Y0039446D02*
X0249843Y0039446D01*
X0251154Y0041844D02*
X0248490Y0041844D01*
X0251154Y0044243D02*
X0245596Y0044243D01*
X0251154Y0046641D02*
X0213334Y0046641D01*
X0214006Y0049040D02*
X0251154Y0049040D01*
X0251154Y0051438D02*
X0214928Y0051438D01*
X0214879Y0053837D02*
X0251154Y0053837D01*
X0251154Y0056235D02*
X0213740Y0056235D01*
X0213580Y0058634D02*
X0251154Y0058634D01*
X0251154Y0061032D02*
X0214771Y0061032D01*
X0214856Y0063431D02*
X0251154Y0063431D01*
X0251154Y0065829D02*
X0213959Y0065829D01*
X0219977Y0068228D02*
X0251154Y0068228D01*
X0251154Y0070626D02*
X0222813Y0070626D01*
X0223226Y0073025D02*
X0251154Y0073025D01*
X0251154Y0075423D02*
X0223226Y0075423D01*
X0223226Y0077822D02*
X0251154Y0077822D01*
X0251154Y0080221D02*
X0223226Y0080221D01*
X0223226Y0082619D02*
X0251154Y0082619D01*
X0251154Y0085018D02*
X0223226Y0085018D01*
X0223226Y0087416D02*
X0251154Y0087416D01*
X0251154Y0089815D02*
X0223226Y0089815D01*
X0223226Y0092213D02*
X0251154Y0092213D01*
X0251154Y0094612D02*
X0223226Y0094612D01*
X0223226Y0097010D02*
X0251154Y0097010D01*
X0251154Y0099409D02*
X0223226Y0099409D01*
X0223226Y0101807D02*
X0251154Y0101807D01*
X0251154Y0104206D02*
X0222876Y0104206D01*
X0220347Y0106604D02*
X0251154Y0106604D01*
X0251154Y0109003D02*
X0221872Y0109003D01*
X0223226Y0111401D02*
X0251154Y0111401D01*
X0251154Y0113800D02*
X0223226Y0113800D01*
X0223226Y0116198D02*
X0251154Y0116198D01*
X0251154Y0118597D02*
X0223226Y0118597D01*
X0223226Y0120995D02*
X0251154Y0120995D01*
X0251154Y0123394D02*
X0223226Y0123394D01*
X0223226Y0125792D02*
X0251154Y0125792D01*
X0251154Y0128191D02*
X0223226Y0128191D01*
X0223226Y0130589D02*
X0251154Y0130589D01*
X0251154Y0132988D02*
X0223226Y0132988D01*
X0223226Y0135386D02*
X0251154Y0135386D01*
X0251154Y0137785D02*
X0246307Y0137785D01*
X0246441Y0137840D02*
X0249104Y0140504D01*
X0250546Y0143983D01*
X0250546Y0147750D01*
X0249104Y0151230D01*
X0246441Y0153893D01*
X0242961Y0155334D01*
X0239195Y0155334D01*
X0235715Y0153893D01*
X0233052Y0151230D01*
X0231610Y0147750D01*
X0231610Y0143983D01*
X0233052Y0140504D01*
X0235715Y0137840D01*
X0239195Y0136399D01*
X0242961Y0136399D01*
X0246441Y0137840D01*
X0248784Y0140183D02*
X0251154Y0140183D01*
X0251154Y0142582D02*
X0249965Y0142582D01*
X0250546Y0144980D02*
X0251154Y0144980D01*
X0251154Y0147379D02*
X0250546Y0147379D01*
X0251154Y0149777D02*
X0249706Y0149777D01*
X0251154Y0152176D02*
X0248158Y0152176D01*
X0250633Y0154574D02*
X0244796Y0154574D01*
X0248235Y0156973D02*
X0160234Y0156973D01*
X0160234Y0159371D02*
X0245836Y0159371D01*
X0243438Y0161770D02*
X0160234Y0161770D01*
X0160234Y0164168D02*
X0199199Y0164168D01*
X0195725Y0166567D02*
X0160234Y0166567D01*
X0160234Y0168965D02*
X0194689Y0168965D01*
X0194689Y0171364D02*
X0160234Y0171364D01*
X0160234Y0173762D02*
X0195738Y0173762D01*
X0196131Y0176161D02*
X0160234Y0176161D01*
X0160234Y0178559D02*
X0194843Y0178559D01*
X0194689Y0180958D02*
X0160234Y0180958D01*
X0161974Y0183356D02*
X0195506Y0183356D01*
X0198251Y0185755D02*
X0161987Y0185755D01*
X0155865Y0186969D02*
X0155865Y0147371D01*
X0204822Y0147371D01*
X0218857Y0147371D01*
X0218857Y0112166D01*
X0205759Y0112166D01*
X0205759Y0112493D01*
X0201376Y0118597D02*
X0073620Y0118597D01*
X0073620Y0116198D02*
X0197741Y0116198D01*
X0196624Y0113800D02*
X0073620Y0113800D01*
X0073620Y0111401D02*
X0196591Y0111401D01*
X0197528Y0109003D02*
X0073620Y0109003D01*
X0073620Y0106604D02*
X0198147Y0106604D01*
X0196792Y0104206D02*
X0073620Y0104206D01*
X0073620Y0101807D02*
X0196591Y0101807D01*
X0197360Y0099409D02*
X0073620Y0099409D01*
X0073620Y0097010D02*
X0198553Y0097010D01*
X0196960Y0094612D02*
X0073620Y0094612D01*
X0073620Y0092213D02*
X0196591Y0092213D01*
X0197192Y0089815D02*
X0073620Y0089815D01*
X0073620Y0087416D02*
X0198959Y0087416D01*
X0197128Y0085018D02*
X0149859Y0085018D01*
X0150176Y0082619D02*
X0196591Y0082619D01*
X0197023Y0080221D02*
X0150176Y0080221D01*
X0150176Y0077822D02*
X0198706Y0077822D01*
X0197296Y0075423D02*
X0149194Y0075423D01*
X0148423Y0073025D02*
X0196591Y0073025D01*
X0196855Y0070626D02*
X0148423Y0070626D01*
X0148423Y0068228D02*
X0198300Y0068228D01*
X0197559Y0065829D02*
X0148423Y0065829D01*
X0148423Y0063431D02*
X0196662Y0063431D01*
X0196748Y0061032D02*
X0148423Y0061032D01*
X0148423Y0058634D02*
X0197938Y0058634D01*
X0197778Y0056235D02*
X0148423Y0056235D01*
X0148423Y0053837D02*
X0196639Y0053837D01*
X0196591Y0051438D02*
X0148423Y0051438D01*
X0148423Y0049040D02*
X0197512Y0049040D01*
X0198184Y0046641D02*
X0148423Y0046641D01*
X0171613Y0033426D02*
X0069251Y0033426D01*
X0069251Y0183347D01*
X0056692Y0183347D01*
X0063609Y0188154D02*
X0149744Y0188154D01*
X0149744Y0190552D02*
X0149744Y0183386D01*
X0150226Y0182221D01*
X0151118Y0181330D01*
X0151497Y0181173D01*
X0151497Y0146502D01*
X0152162Y0144896D01*
X0153391Y0143667D01*
X0154996Y0143002D01*
X0197467Y0143002D01*
X0198098Y0142371D01*
X0196593Y0140865D01*
X0195654Y0138598D01*
X0196310Y0140183D02*
X0073620Y0140183D01*
X0073620Y0142582D02*
X0197887Y0142582D01*
X0195967Y0135386D02*
X0073620Y0135386D01*
X0073620Y0132988D02*
X0197481Y0132988D01*
X0212163Y0132988D02*
X0214489Y0132988D01*
X0214489Y0135386D02*
X0213677Y0135386D01*
X0213991Y0137785D02*
X0214489Y0137785D01*
X0214489Y0140183D02*
X0213334Y0140183D01*
X0214489Y0142582D02*
X0211757Y0142582D01*
X0222589Y0149777D02*
X0232450Y0149777D01*
X0231610Y0147379D02*
X0223226Y0147379D01*
X0223226Y0144980D02*
X0231610Y0144980D01*
X0232191Y0142582D02*
X0223226Y0142582D01*
X0223226Y0140183D02*
X0233372Y0140183D01*
X0235849Y0137785D02*
X0223226Y0137785D01*
X0214489Y0130589D02*
X0073620Y0130589D01*
X0073620Y0128191D02*
X0214489Y0128191D01*
X0214489Y0125792D02*
X0073620Y0125792D01*
X0073620Y0123394D02*
X0214489Y0123394D01*
X0214489Y0120995D02*
X0073620Y0120995D01*
X0073620Y0144980D02*
X0152127Y0144980D01*
X0151497Y0147379D02*
X0073620Y0147379D01*
X0073620Y0149777D02*
X0151497Y0149777D01*
X0151497Y0152176D02*
X0073620Y0152176D01*
X0073620Y0154574D02*
X0151497Y0154574D01*
X0151497Y0156973D02*
X0073620Y0156973D01*
X0073620Y0159371D02*
X0151497Y0159371D01*
X0151497Y0161770D02*
X0073620Y0161770D01*
X0073620Y0164168D02*
X0151497Y0164168D01*
X0151497Y0166567D02*
X0073620Y0166567D01*
X0073620Y0168965D02*
X0151497Y0168965D01*
X0151497Y0171364D02*
X0073620Y0171364D01*
X0073620Y0173762D02*
X0151497Y0173762D01*
X0151497Y0176161D02*
X0073620Y0176161D01*
X0073620Y0178559D02*
X0151497Y0178559D01*
X0151497Y0180958D02*
X0073620Y0180958D01*
X0073620Y0183356D02*
X0149756Y0183356D01*
X0149744Y0185755D02*
X0072982Y0185755D01*
X0085078Y0198198D02*
X0085078Y0204867D01*
X0085078Y0198198D01*
X0085078Y0200146D02*
X0085078Y0200146D01*
X0085078Y0202545D02*
X0085078Y0202545D01*
X0085078Y0204867D02*
X0085078Y0204867D01*
X0089788Y0200146D02*
X0090368Y0200146D01*
X0080368Y0200146D02*
X0079788Y0200146D01*
X0070368Y0200146D02*
X0069788Y0200146D01*
X0060368Y0200146D02*
X0059788Y0200146D01*
X0050368Y0200146D02*
X0049370Y0200146D01*
X0047348Y0197748D02*
X0216709Y0197748D01*
X0216709Y0195349D02*
X0005491Y0195349D01*
X0005491Y0192951D02*
X0151945Y0192951D01*
X0159786Y0192951D02*
X0216709Y0192951D01*
X0216709Y0185755D02*
X0209464Y0185755D01*
X0203857Y0180158D02*
X0221078Y0180158D01*
X0221078Y0204867D01*
X0216368Y0200146D02*
X0215788Y0200146D01*
X0206368Y0200146D02*
X0205788Y0200146D01*
X0196368Y0200146D02*
X0195788Y0200146D01*
X0186368Y0200146D02*
X0185788Y0200146D01*
X0176368Y0200146D02*
X0175788Y0200146D01*
X0166368Y0200146D02*
X0165788Y0200146D01*
X0156368Y0200146D02*
X0149788Y0200146D01*
X0151746Y0202545D02*
X0154409Y0202545D01*
X0154409Y0204943D02*
X0151746Y0204943D01*
X0151746Y0207342D02*
X0154409Y0207342D01*
X0156521Y0209740D02*
X0149635Y0209740D01*
X0140368Y0200146D02*
X0139788Y0200146D01*
X0130368Y0200146D02*
X0129788Y0200146D01*
X0120368Y0200146D02*
X0119788Y0200146D01*
X0110368Y0200146D02*
X0109788Y0200146D01*
X0100368Y0200146D02*
X0099788Y0200146D01*
X0160234Y0154574D02*
X0237360Y0154574D01*
X0233998Y0152176D02*
X0211740Y0152176D01*
X0208516Y0164168D02*
X0241389Y0164168D01*
X0241154Y0166567D02*
X0233665Y0166567D01*
X0235312Y0168965D02*
X0241154Y0168965D01*
X0241154Y0171364D02*
X0235446Y0171364D01*
X0231078Y0170158D02*
X0231078Y0204867D01*
X0235788Y0200146D02*
X0241154Y0200146D01*
X0241154Y0202545D02*
X0237746Y0202545D01*
X0237746Y0204943D02*
X0241154Y0204943D01*
X0241274Y0207342D02*
X0237746Y0207342D01*
X0235635Y0209740D02*
X0240777Y0209740D01*
X0241154Y0197748D02*
X0235446Y0197748D01*
X0235446Y0195349D02*
X0241154Y0195349D01*
X0241154Y0192951D02*
X0235446Y0192951D01*
X0235446Y0190552D02*
X0241154Y0190552D01*
X0241154Y0188154D02*
X0235446Y0188154D01*
X0235446Y0185755D02*
X0241154Y0185755D01*
X0241154Y0183356D02*
X0235446Y0183356D01*
X0235446Y0180958D02*
X0241154Y0180958D01*
X0241154Y0178559D02*
X0235446Y0178559D01*
X0235446Y0176161D02*
X0241154Y0176161D01*
X0241154Y0173762D02*
X0235446Y0173762D01*
X0231078Y0170158D02*
X0203857Y0170158D01*
X0197904Y0152176D02*
X0160234Y0152176D01*
X0210142Y0118597D02*
X0214489Y0118597D01*
X0218857Y0102493D02*
X0205759Y0102493D01*
X0218857Y0102493D02*
X0218857Y0072493D01*
X0205759Y0072493D01*
X0183424Y0076733D02*
X0183424Y0080670D01*
X0182722Y0044243D02*
X0196842Y0044243D01*
X0196616Y0041844D02*
X0183856Y0041844D01*
X0183856Y0039446D02*
X0197388Y0039446D01*
X0214130Y0039446D02*
X0232313Y0039446D01*
X0233666Y0041844D02*
X0214902Y0041844D01*
X0214676Y0044243D02*
X0236560Y0044243D01*
X0236649Y0027453D02*
X0235446Y0027453D01*
X0221078Y0025552D02*
X0171613Y0025552D01*
X0171613Y0033426D01*
X0221078Y0025552D02*
X0221078Y0014867D01*
X0236306Y0010664D02*
X0241006Y0010664D01*
X0241154Y0013062D02*
X0237746Y0013062D01*
X0096829Y0044243D02*
X0073620Y0044243D01*
X0073620Y0046641D02*
X0095616Y0046641D01*
X0095516Y0049040D02*
X0073620Y0049040D01*
X0073620Y0051438D02*
X0096386Y0051438D01*
X0097235Y0053837D02*
X0073620Y0053837D01*
X0073620Y0056235D02*
X0095808Y0056235D01*
X0095522Y0058634D02*
X0073620Y0058634D01*
X0073620Y0061032D02*
X0096250Y0061032D01*
X0054158Y0022656D02*
X0042678Y0022656D01*
X0044507Y0020258D02*
X0087038Y0020258D01*
X0084640Y0017859D02*
X0045500Y0017859D01*
X0045546Y0015461D02*
X0084409Y0015461D01*
X0084409Y0013062D02*
X0045164Y0013062D01*
X0044171Y0010664D02*
X0085850Y0010664D01*
X0034808Y0197748D02*
X0005491Y0197748D01*
X0005491Y0200146D02*
X0032785Y0200146D01*
X0031792Y0202545D02*
X0005491Y0202545D01*
X0005491Y0204943D02*
X0031610Y0204943D01*
X0031855Y0207342D02*
X0005491Y0207342D01*
X0005491Y0209740D02*
X0032849Y0209740D01*
D13*
X0155865Y0186969D03*
X0144054Y0080670D03*
X0183424Y0080670D03*
M02*
