%
M48
M72
T01C0.0394
T02C0.0400
T03C0.1260
%
T01
X14405Y8067
X18342Y8067
X15587Y18697
T02
X16108Y20487
X17108Y20487
X18108Y20487
X19108Y20487
X20108Y20487
X21108Y20487
X22108Y20487
X23108Y20487
X20386Y18016
X20386Y17016
X20482Y14737
X20482Y13737
X20576Y11249
X20576Y10249
X20576Y9249
X20576Y8249
X20576Y7249
X20576Y6249
X20576Y5249
X20576Y4249
X20108Y1487
X21108Y1487
X22108Y1487
X23108Y1487
X19108Y1487
X18108Y1487
X16108Y1487
X15108Y1487
X14108Y1487
X13108Y1487
X12108Y1487
X11108Y1487
X10108Y1487
X9108Y1487
X10468Y4811
X10468Y5811
X5669Y11110
X5669Y12110
X5669Y14335
X5669Y15335
X5669Y16335
X5669Y17335
X5669Y18335
X5508Y20487
X6508Y20487
X7508Y20487
X8508Y20487
X9508Y20487
X10508Y20487
X11508Y20487
X12508Y20487
X13508Y20487
X14508Y20487
T03
X3608Y1587
X24108Y3587
X24108Y14587
X4108Y20487
M30
